<svg xmlns="http://www.w3.org/2000/svg" version="1.2" baseProfile="tiny" width="100%" height="100%" viewBox="0 0 400 600" preserveAspectRatio="xMinYMin meet">
<g transform="scale(0.99 1) translate(2.020202020202022 0)">
<path fill="#74453d" stroke="#000" stroke-width="6" d="M10 600s0-50 60-70 70-50 70-50l60-180 60 180s10 30 70 50 60 70 60 70"/>
</g>
<g transform="scale(0.99 1) translate(2.020202020202022 0)">
<path fill="#F00BA1" stroke="#000" stroke-width="6" d="M80 610s10-30 10-90l20-10s10 80 90 80 90-80 90-80l20 10c0 60 10 90 10 90z"/><path fill="#F00BA2" d="M85 575v25h230v-25h-65s-20 15-50 15-50-15-50-15z"/><path fill="none" stroke="#000" stroke-width="16" d="M90 520c0 60-10 90-10 90m230-90c0 60 10 90 10 90M110 510s10 80 90 80 90-80 90-80"/><path fill="none" stroke="#F00BA1" stroke-width="12" d="M90 520c0 60-10 90-10 90m230-90c0 60 10 90 10 90M110 510s10 80 90 80 90-80 90-80"/><path fill="none" stroke="#F00BA3" stroke-width="6" d="M90 520c0 60-10 90-10 90m230-90c0 60 10 90 10 90M110 510s10 80 90 80 90-80 90-80"/>
</g>
<g transform="translate(32 293.3) scale(1.36 1.36) translate(-6.0882352941176485 -8.391176470588238) translate(1.3400000000000007 -3)">
<path fill="#74453d" stroke="#000" stroke-width="6" d="M43 8S3-12 3 28c0 45 40 30 40 30z"/>
</g>
<g transform="translate(322 293.3) scale(-1.36 1.36) translate(-39.911764705882355 -8.391176470588238) translate(1.3400000000000007 -3)">
<path fill="#74453d" stroke="#000" stroke-width="6" d="M43 8S3-12 3 28c0 45 40 30 40 30z"/>
</g>
<g transform="scale(0.9720000000000001 1) translate(5.761316872427965 0)">
<path fill="#74453d" stroke="#000" stroke-width="6" d="M200 100c100 0 150 60 150 200 0 0-20 105-20 135s-110 65-130 65-130-35-130-65-20-135-20-135c0-140 50-200 150-200Z"/><path fill="rgba(0,0,0,0)" d="M60 300H50c0-140 50-200 150-200s150 60 150 200h-10v-10c0-5-10-20-15-25s-5-55-15-65c-40-40-60 0-110 0s-70-40-110 0c-10 10-10 60-15 65s-15 20-15 25z"/><path fill="rgba(0,0,0,0)" d="M200 410c30 0 50 10 50 10 30 0 90-15 90-120h10s-20 105-20 135-110 65-130 65-130-35-130-65-20-135-20-135h10c0 105 60 120 90 120 0 0 20-10 50-10"/>
</g>
<g>
<path fill="none" stroke="#000" stroke-width="2" d="M240 340s25 10 40 0m-120 0s-25 10-40 0"/>
</g>
<g transform="translate(140.5 420.5) scale(0.55 0.55) translate(7.772727272727271 11.863636363636362)">
<path fill="none" stroke="#000" stroke-width="2" d="M17 2 2 12l5 15"/>
</g>
<g transform="translate(240.5 420.5) scale(-0.55 0.55) translate(-26.77272727272727 11.863636363636362)">
<path fill="none" stroke="#000" stroke-width="2" d="M17 2 2 12l5 15"/>
</g>
<g transform="scale(0.9720000000000001 1) translate(5.761316872427965 0)">
<path fill="#272421" stroke="#000" d="m200 457.82 10 2.18s0 20 10 20 30-5 30 0c0 20-30 30-50 30s-50-10-50-30c0-5 20 0 30 0s10-20 10-20zM150 425c-5-5 25-20 35-20 5 0 10 5 15 5s10-5 15-5c10 0 40 15 35 20s-5-5-50-5-45 10-50 5Z"/>
</g>
<g transform="translate(102.43516325508939 287.6) rotate(8 37.56483674491061 22.4)">
<path d="M5 35S17.08 5 40 5s30 30 30 30-7.15 7.92-30.07 7.92S5 35 5 35" style="fill:#f5f3ee"/><path d="M5 35.6C2.13 32.73 17.08 1.88 40 1.88S72.87 32.13 70 35 62.92 6.73 40 6.73 7.87 38.46 5 35.6" style="fill:#000"/><path d="M39.93 33.78c-4.53 0-8.2-3.66-8.2-8.2 0-4.53 3.67-8.19 8.2-8.19s8.19 3.66 8.19 8.19c0 4.54-3.66 8.2-8.19 8.2" style="fill:#000"/>
</g>
<g transform="translate(222.43516325508938 287.6) rotate(-8 37.56483674491061 22.4) scale(-1 1) translate(-75.12967348982122 0)">
<path d="M5 35S17.08 5 40 5s30 30 30 30-7.15 7.92-30.07 7.92S5 35 5 35" style="fill:#f5f3ee"/><path d="M5 35.6C2.13 32.73 17.08 1.88 40 1.88S72.87 32.13 70 35 62.92 6.73 40 6.73 7.87 38.46 5 35.6" style="fill:#000"/><path d="M39.93 33.78c-4.53 0-8.2-3.66-8.2-8.2 0-4.53 3.67-8.19 8.2-8.19s8.19 3.66 8.19 8.19c0 4.54-3.66 8.2-8.19 8.2" style="fill:#000"/>
</g>
<g transform="translate(97.20374849998123 257.1494303002541) rotate(10 42.79625150001876 12.850569699745927)">
<path fill="#272421" stroke="#000" d="M12.93 8.33C11.42 9.56 8.75 12.57 6.99 15s-3.38 5.16-3.61 6.06c-.22.91-.16 1.77.13 1.92.3.14 4.44-.51 9.21-1.46s11.58-1.96 15.13-2.23c3.55-.28 11.63-.52 17.94-.53 6.32-.02 14.56.22 18.32.53 3.75.31 8.39.47 10.29.36 1.91-.11 4.56-.5 5.89-.87 2.09-.59 2.33-.97 1.84-2.91-.42-1.66-1.74-2.85-5.18-4.66-2.54-1.34-7.86-3.18-11.83-4.09-3.97-.92-10.99-2.21-15.6-2.87-4.62-.66-11.91-1.33-16.22-1.49-6.13-.21-8.91.12-12.73 1.52-2.69.99-6.13 2.81-7.64 4.05Z"/>
</g>
<g transform="translate(217.20374849998123 257.1494303002541) rotate(-10 42.79625150001876 12.850569699745927) scale(-1 1) translate(-85.59250300003752 0)">
<path fill="#272421" stroke="#000" d="M12.93 8.33C11.42 9.56 8.75 12.57 6.99 15s-3.38 5.16-3.61 6.06c-.22.91-.16 1.77.13 1.92.3.14 4.44-.51 9.21-1.46s11.58-1.96 15.13-2.23c3.55-.28 11.63-.52 17.94-.53 6.32-.02 14.56.22 18.32.53 3.75.31 8.39.47 10.29.36 1.91-.11 4.56-.5 5.89-.87 2.09-.59 2.33-.97 1.84-2.91-.42-1.66-1.74-2.85-5.18-4.66-2.54-1.34-7.86-3.18-11.83-4.09-3.97-.92-10.99-2.21-15.6-2.87-4.62-.66-11.91-1.33-16.22-1.49-6.13-.21-8.91.12-12.73 1.52-2.69.99-6.13 2.81-7.64 4.05Z"/>
</g>
<g transform="translate(168 428.3888888888889)">
<path d="M32 3c10 0 15 0 25 5 5 5 5 5 0 10s-15 0-25 0-20 5-25 0-5-5 0-10c10-5 15-5 25-5Z" style="fill:#fff;stroke:#000;stroke-width:5"/>
</g>
<g transform="translate(0 -12.5) scale(0.9 0.9) translate(22.222222222222218 42.49999999999999)">
<path fill="#74453d" stroke="#000" stroke-width="5" d="M175 370c-20 0-5 25 5 15 5-5 15 10 20 10s15-15 20-10c10 10 25-15 5-15"/>
</g>
<g transform="scale(-1 1) translate(-400 0) scale(0.9720000000000001 1) translate(5.761316872427965 0)">
<path fill="#272421" stroke="#000" stroke-width="4" d="M60 310H50v-10C50 110 40 90 60 90h280c20 0 10 20 10 210v10h-10v-20c0-5-10-20-15-25s-5-55-15-65-60 0-110 0-100-10-110 0-10 60-15 65-15 20-15 25z"/>
</g>
<g transform="scale(0.9720000000000001 1) translate(5.761316872427965 0)">
<path fill="#333" stroke="#000" stroke-width="2" d="M50 285h30s20-10 50-10 65 10 65 10h10s35-10 65-10 50 10 50 10h30v10l-30 5s-20-15-50-15-60 10-60 10-5 15 0 25c0 0-5-10-10-10s-10 10-10 10c5-10 0-25 0-25s-30-10-60-10-50 15-50 15l-30-5z"/><path fill="rgba(150,150,175,.5)" fill-rule="lens" d="M155 340c35 0 35 5 35-20 5-10 0-25 0-25s-30-10-60-10-50 15-50 15-5 40 5 45 40-5 70-5m160 5c10-5 5-45 5-45s-20-15-50-15-60 10-60 10-5 15 0 25c0 25 0 20 35 20 30 0 60 10 70 5"/><path fill="none" stroke="#fff" stroke-width="2" d="m275 330 15-35m-5 35 15-35m-165 35 15-35m-5 35 15-35"/>
</g>
<g transform="scale(0.9720000000000001 1) translate(5.761316872427965 0)">
<g stroke="#000"><path fill="#F00BA1" stroke-width="4" d="M350 280c-10 0-30-90-150-90S60 280 50 280c-10-10-10-40 0-50 0 0 30-90 150-90s150 90 150 90c10 10 10 40 0 50Z"/><path fill="#F00BA2" d="M45 260v-10s35-90 155-90 155 90 155 90v10c-5 0-35-90-155-90S50 260 45 260Z"/></g>
</g>
</svg>