<svg xmlns="http://www.w3.org/2000/svg" version="1.2" baseProfile="tiny" width="100%" height="100%" viewBox="0 0 400 600" preserveAspectRatio="xMinYMin meet">
<g transform="scale(1.03 1) translate(-5.825242718446607 0)">
<path fill="#ddb7a0" stroke="#000" stroke-width="6" d="M10 600s-10-65 50-65c5 0 25-15 70-35l70-200 70 200c45 20 65 35 70 35 60 0 50 65 50 65"/>
</g>
<g transform="scale(1.03 1) translate(-5.825242718446607 0)">
<path fill="#1F2E4E" stroke="#000" stroke-width="6" d="M80 610s10-30 10-90l20-10s10 80 90 80 90-80 90-80l20 10c0 60 10 90 10 90z"/><path fill="#F2A900" d="M85 575v25h230v-25h-65s-20 15-50 15-50-15-50-15z"/><path fill="none" stroke="#000" stroke-width="16" d="M90 520c0 60-10 90-10 90m230-90c0 60 10 90 10 90M110 510s10 80 90 80 90-80 90-80"/><path fill="none" stroke="#1F2E4E" stroke-width="12" d="M90 520c0 60-10 90-10 90m230-90c0 60 10 90 10 90M110 510s10 80 90 80 90-80 90-80"/><path fill="none" stroke="#FFFFFF" stroke-width="6" d="M90 520c0 60-10 90-10 90m230-90c0 60 10 90 10 90M110 510s10 80 90 80 90-80 90-80"/>
</g>
<g transform="translate(32 293.3) scale(1.17 1.17) translate(-3.3418803418803407 -4.605982905982905) translate(22.42 -3)">
<path fill="#ddb7a0" stroke="#000" stroke-width="6" d="M43 8S3-12 3 28c0 45 40 30 40 30z"/>
</g>
<g transform="translate(322 293.3) scale(-1.17 1.17) translate(-42.65811965811966 -4.605982905982905) translate(22.42 -3)">
<path fill="#ddb7a0" stroke="#000" stroke-width="6" d="M43 8S3-12 3 28c0 45 40 30 40 30z"/>
</g>
<g transform="scale(0.8360000000000001 1) translate(39.23444976076553 0)">
<path fill="#ddb7a0" stroke="#000" stroke-width="6" d="M200 100c100 0 150 60 150 200 0 160-80 170-100 190-10 10-30 20-50 10-20 10.9-40 0-50-10-20-20-100-30-100-190 0-140 50-200 150-200Z"/><path fill="rgba(0,0,0,0)" d="M60 300H50c0-140 50-200 150-200s150 60 150 200h-10v-10c0-5-10-20-15-25s-5-55-15-65c-40-40-60 0-110 0s-70-40-110 0c-10 10-10 60-15 65s-15 20-15 25z"/><path fill="rgba(0,0,0,0)" d="M200 410c30 0 50 10 50 10 30 0 90-15 90-120h10c0 160-80 170-100 190-10 10-30 20-50 10-20 10-40 0-50-10-20-20-100-30-100-190h10c0 105 60 120 90 120 0 0 20-10 50-10"/>
</g>
<g>
<path fill="none" stroke="#000" stroke-width="2" d="M200 270v-15l5-5-5 5-5-5m-25-15s15 0 30 5c15-5 30-5 30-5m-75-15s35 0 45 5c10-5 45-5 45-5"/>
</g>
<g transform="scale(0.8360000000000001 1) translate(39.23444976076553 0)">
<path fill="#CC9966" fill-rule="evenodd" stroke="#000" d="M60 300H50s-10 70 10 130c10 20 60 70 120 70 10 0-30-28.8-30-50 0-20 10-20 10-30s-30 30-70-10c-20-20-30-80-30-110Zm250 110c-40 40-70 0-70 10s10 10 10 30c0 21.2-40 50-30 50 60 0 110-50 120-70 20-60 10-130 10-130h-10c0 30-10 90-30 110Z"/><path fill="#CC9966" stroke="#000" d="M200 458.02 190 460c-10 10-20 40-20 40s10 10 30 10 30-10 30-10-10-30-20-40zM150 425c-5-5 25-20 35-20 5 0 10 5 15 5s10-5 15-5c10 0 40 15 35 20s-5-5-50-5-45 10-50 5Z"/>
</g>
<g transform="translate(98.84448468063304 285.57536672288046) rotate(9 41.155515319366955 24.42463327711953)">
<path d="M73.67 39.73c3.92-10.47 2.35-25.38 2.35-25.38s-35.86-6.27-45.8-5.22c-9.95 1.04-24.34 7.59-24.34 7.59s-1.44 10.21 7.6 24.34z" style="fill:#fff"/><path d="M45.8 37.65c-4.13.43-8.17-5.88-9.04-14.13s1.76-15.27 5.89-15.71c4.12-.43 8.16 5.88 9.03 14.13s-1.76 15.27-5.88 15.71" style="fill:#000"/><path d="M73.67 39.73c4.45-5.49 2.35-25.38 2.35-25.38s-35.86-6.27-45.8-5.22c-9.95 1.04-24.34 7.59-24.34 7.59s1.57 14.92 7.6 24.34" style="fill:none;stroke:#000;stroke-width:5"/>
</g>
<g transform="translate(218.84448468063306 285.57536672288046) rotate(-9 41.155515319366955 24.42463327711953) scale(-1 1) translate(-82.31103063873391 0)">
<path d="M73.67 39.73c3.92-10.47 2.35-25.38 2.35-25.38s-35.86-6.27-45.8-5.22c-9.95 1.04-24.34 7.59-24.34 7.59s-1.44 10.21 7.6 24.34z" style="fill:#fff"/><path d="M45.8 37.65c-4.13.43-8.17-5.88-9.04-14.13s1.76-15.27 5.89-15.71c4.12-.43 8.16 5.88 9.03 14.13s-1.76 15.27-5.88 15.71" style="fill:#000"/><path d="M73.67 39.73c4.45-5.49 2.35-25.38 2.35-25.38s-35.86-6.27-45.8-5.22c-9.95 1.04-24.34 7.59-24.34 7.59s1.57 14.92 7.6 24.34" style="fill:none;stroke:#000;stroke-width:5"/>
</g>
<g transform="translate(101.91746012211166 257.0658529346995) rotate(14 38.082539877888344 12.934147065300508)">
<path fill="#CC9966" stroke="#000" d="M74.17 18.39c5.31-3.87-1.66-7.27-1.66-7.27s-20.66-2.78-26.56-3.1c-7.56-.72-22.76-1.1-22.76-1.1S10.98 10 18.3 16.95c10.59 2.96 14.71-1.32 31.19-.91 16.85.28 21.74 4.37 24.68 2.35Z"/><path d="M0 10h5v5H0z" style="fill:none"/>
</g>
<g transform="translate(221.91746012211166 257.0658529346995) rotate(-14 38.082539877888344 12.934147065300508) scale(-1 1) translate(-76.16507975577669 0)">
<path fill="#CC9966" stroke="#000" d="M74.17 18.39c5.31-3.87-1.66-7.27-1.66-7.27s-20.66-2.78-26.56-3.1c-7.56-.72-22.76-1.1-22.76-1.1S10.98 10 18.3 16.95c10.59 2.96 14.71-1.32 31.19-.91 16.85.28 21.74 4.37 24.68 2.35Z"/><path d="M0 10h5v5H0z" style="fill:none"/>
</g>
<g transform="translate(0 5) scale(-1 1) translate(-400 0)">
<path d="M170 430s10 10 30 10 30-10 30-10" style="fill:none;stroke:#000;stroke-width:5"/>
</g>
<g transform="translate(160 318.75) scale(1.01 1.01) translate(-0.5060506050605066 -0.5074257425742578)">
<path fill="#ddb7a0" stroke="#000" stroke-width="5" d="M40 40s50-30 0 30"/>
</g>
<g transform="scale(-1 1) translate(-400 0) scale(0.8360000000000001 1) translate(39.23444976076553 0)">
<path fill="#CC9966" stroke="#000" stroke-width="4" d="M60 310H50v-10c0-140 50-200 150-200s150 60 150 200v10h-10v-20c0-5-10-20-15-25s-15-55-15-65c0-56.57-60-95-110-95S90 143.43 90 200c0 10-10 60-15 65s-15 20-15 25z"/>
</g>
</svg>