<svg xmlns="http://www.w3.org/2000/svg" version="1.2" baseProfile="tiny" width="100%" height="100%" viewBox="0 0 400 600" preserveAspectRatio="xMinYMin meet">
<g transform="scale(1.04 1) translate(-7.785282898919269 0)">
<path fill="#bb876f" stroke="#000" stroke-width="6" d="M20 600s-5-60 40-70c15 0 45-15 90-35l50-195 50 195c45 20 75 35 90 35 45 10 45 70 45 70"/>
</g>
<g transform="scale(1.04 1) translate(-7.692307692307699 0)">
<path fill="#23305A" stroke="#000" stroke-width="6" d="M80 610s10-30 10-90l20-10s10 80 90 80 90-80 90-80l20 10c0 60 10 90 10 90z"/><path fill="#F58426" d="M85 575v25h230v-25h-65s-20 15-50 15-50-15-50-15z"/><path fill="none" stroke="#000" stroke-width="16" d="M90 520c0 60-10 90-10 90m230-90c0 60 10 90 10 90M110 510s10 80 90 80 90-80 90-80"/><path fill="none" stroke="#23305A" stroke-width="12" d="M90 520c0 60-10 90-10 90m230-90c0 60 10 90 10 90M110 510s10 80 90 80 90-80 90-80"/><path fill="none" stroke="#FFFFFF" stroke-width="6" d="M90 520c0 60-10 90-10 90m230-90c0 60 10 90 10 90M110 510s10 80 90 80 90-80 90-80"/>
</g>
<g transform="translate(32 293.3) scale(0.81 0.81) translate(5.395061728395061 7.4358024691358) translate(6.300000000000001 -3)">
<path fill="#bb876f" stroke="#000" stroke-width="6" d="M43 8S3-12 3 28c0 45 40 30 40 30z"/>
</g>
<g transform="translate(322 293.3) scale(-0.81 0.81) translate(-51.39506172839506 7.4358024691358) translate(6.300000000000001 -3)">
<path fill="#bb876f" stroke="#000" stroke-width="6" d="M43 8S3-12 3 28c0 45 40 30 40 30z"/>
</g>
<g transform="scale(0.9400000000000001 1) translate(12.765957446808498 0)">
<path fill="#bb876f" stroke="#000" stroke-width="6" d="M200 100c100 0 150 60 150 200 0 70-30 150-40 160s-60 40-110 40-100-30-110-40-40-90-40-160c0-140 50-200 150-200Z"/><path fill="rgba(0,0,0,0)" d="M200 410c30 0 50 10 50 10 30 0 90-15 90-120h10c0 70-30 150-40 160s-60 40-110 40-100-30-110-40-40-90-40-160h10c0 105 60 120 90 120 0 0 20-10 50-10"/><path fill="rgba(0,0,0,0)" d="M60 300H50c0-140 50-200 150-200s150 60 150 200h-10v-10c0-5-10-20-15-25s-5-55-15-65c-40-40-60 0-110 0s-70-40-110 0c-10 10-10 60-15 65s-15 20-15 25z"/>
</g>
<g transform="translate(142.67 417.5) scale(0.45 0.45) translate(8.95888888888889 21.38888888888889)">
<path fill="none" stroke="#000" stroke-width="2" d="M12.33 4.32s-10 3.29-10 13.18 10 13.18 10 13.18"/>
</g>
<g transform="translate(242.67 417.5) scale(-0.45 0.45) translate(-23.618888888888886 21.38888888888889)">
<path fill="none" stroke="#000" stroke-width="2" d="M12.33 4.32s-10 3.29-10 13.18 10 13.18 10 13.18"/>
</g>
<g>
<path fill="none" stroke="#000" stroke-width="2" d="M170 235s15 0 30 5c15-5 30-5 30-5m-75-15s35 0 45 5c10-5 45-5 45-5"/>
</g>
<g transform="scale(0.9400000000000001 1) translate(12.734042553191477 0)">
<path fill="#1c1008" stroke="#000" d="M205 420c-4 0-5-5-.8-10 5.8-5 15.8-5 15.8-5 15 0 35 15 35 25 0 30 10 55 5 60s-15 5-20 0 5-40 5-55-15-15-40-15Zm-10 0c4 0 5-5 0-10s-15-5-15-5c-16 0-35 15-35 25 0 30-10 55-5 60s15 5 20 0-5-40-5-55 15-15 40-15Zm-7 38c2-2 22-2 24 0s-8 16-12 16-14-14-12-16ZM60 300H50s-8.85 85.38 20 95c15 5 0-34.1 0-34.1S65 355 60 300Zm279 0h10s8.85 85.38-20 95c-15 5 0-34.1 0-34.1s5-5.9 10-60.9Z"/>
</g>
<g transform="translate(102.8498332560182 285.49) rotate(2 37.15016674398179 24.509999999999998)">
<path d="M5.55 33.46S17.01 4.81 39.93 4.81s28.65 28.65 28.65 28.65-5.73 11.46-28.65 11.46S5.55 33.46 5.55 33.46" style="fill:#f5f3ee"/><path d="M5.55 33.46C2.68 30.6 17.08 4.1 40 4.1s31.44 26.5 28.58 29.36c-2.87 2.87-5.73-17.19-28.65-17.19S8.41 36.33 5.55 33.46" style="fill:#000"/><path d="M39.93 38.04c-6.34 0-11.46-5.12-11.46-11.46 0-6.33 5.12-11.46 11.46-11.46s11.46 5.13 11.46 11.46c0 6.34-5.12 11.46-11.46 11.46" style="fill:#000"/>
</g>
<g transform="translate(222.8498332560182 285.49) rotate(-2 37.15016674398179 24.509999999999998) scale(-1 1) translate(-74.30033348796358 0)">
<path d="M5.55 33.46S17.01 4.81 39.93 4.81s28.65 28.65 28.65 28.65-5.73 11.46-28.65 11.46S5.55 33.46 5.55 33.46" style="fill:#f5f3ee"/><path d="M5.55 33.46C2.68 30.6 17.08 4.1 40 4.1s31.44 26.5 28.58 29.36c-2.87 2.87-5.73-17.19-28.65-17.19S8.41 36.33 5.55 33.46" style="fill:#000"/><path d="M39.93 38.04c-6.34 0-11.46-5.12-11.46-11.46 0-6.33 5.12-11.46 11.46-11.46s11.46 5.13 11.46 11.46c0 6.34-5.12 11.46-11.46 11.46" style="fill:#000"/>
</g>
<g transform="translate(101.1730837983227 257.1537046085226) rotate(7 38.82691620167731 12.846295391477362)">
<path fill="#1c1008" stroke="#000" d="M76.4 16.1c2.85-2.24-.05-6.36-.05-6.36s-16.86.54-26.27-.02c-9.49-.6-35.33-.86-35.33-.86s-2.2 6.65.57 7.62c2.68.61 24.54-1.45 34.09-.89 9.6.59 24.04 2.16 26.99.51Z"/><path d="M0 10h5v5H0z" style="fill:none"/>
</g>
<g transform="translate(221.1730837983227 257.1537046085226) rotate(-7 38.82691620167731 12.846295391477362) scale(-1 1) translate(-77.65383240335461 0)">
<path fill="#1c1008" stroke="#000" d="M76.4 16.1c2.85-2.24-.05-6.36-.05-6.36s-16.86.54-26.27-.02c-9.49-.6-35.33-.86-35.33-.86s-2.2 6.65.57 7.62c2.68.61 24.54-1.45 34.09-.89 9.6.59 24.04 2.16 26.99.51Z"/><path d="M0 10h5v5H0z" style="fill:none"/>
</g>
<g transform="translate(-1.2900000000000205 20.56000000000006)">
<path d="M198.19 431.84c-7.3-1.3-14.7-2.5-22-3.9a67 67 0 0 1-10.6-3c-4.5-1.6-8.6-3.4-11.8 2.2-.5.9-3.1.6-4.7.9.2-1.5-.1-3.2.6-4.5 2.2-4.6 4.6-9.1 7.1-13.5.7-1.2 2.1-2.1 3.2-3.1.6 1.4 1.7 2.8 1.6 4.1a53.4 53.4 0 0 1-1.7 8.1c27.8 8.4 55.3 8.3 83.4.2-.1-1.3-.2-2.8-.2-4.2s.2-2.8.5-5.8c2 2.2 3.2 3.2 3.9 4.5 2 3.8 4 7.6 5.7 11.6.5 1.2.2 2.7.3 4-1.5-.2-3.3.1-4.4-.7-1.6-1.1-2.6-2.9-3.3-3.6-12.7 2.3-24.7 4.6-36.8 6.8-3.5-.1-7.1-.1-10.8-.1"/>
</g>
<g transform="translate(-4.045739644970411 -18.272994788737606) scale(-1.01 1.01) translate(-406.07122444197074 -3.8442870771162174)">
<path d="M180.17 380.08c1.6.3 3.5.1 4.8.9 4.7 2.8 9.2 6 13.8 9a10.23 10.23 0 0 0 11.7 0c3.9-2.5 7.8-5.1 11.7-7.6 1.6-1.1 3.3-2.2 5.7-3.8 0 2.1.4 3.4-.1 4.3-2.8 6.4-17.9 16.1-24.8 15-4-.6-8-2.8-11.3-5.3-4.3-3.3-7.8-7.5-11.6-11.4a4.5 4.5 0 0 0 .1-1.1"/>
</g>
<g transform="scale(0.9400000000000001 1) translate(12.742978723404244 0)">
<path fill="#1c1008" stroke="#000" stroke-width="5" d="m59.99 309.97-9.99.02s-1.98-4.71-4.04-9.48l-10.6-24.48-8.66-11.07 1.65-9.05-7.84-11.2 3.59-9.06-6.17-11.15 5.2-8.9-3.58-14.75 17.6-9.39-3.32-14.5 25.03-8.7.75-14.9 21.98-3.91 1.47-18.31 21.51-3.02 4.96-19.14 18.68.03 12.26-22.85 17.27 9.82 11.33-24.4 13.86 17.48 13.2-24.51 15.63 24.47 12.3-17.59 13.77 24.45 16.76-9.92 14.31 22.84 19.14-.12 5.99 18.93 21.94 2.75 1.86 17.9 21.99 3.44.81 14.49 24.54 7.65-3.1 14.55 17.26 8.86-3.27 14.66 5.29 8.76-5.85 11.28 3.78 9.07-7.58 11.5 1.84 9.27-8.62 11.57-10.78 26.06c-2.15 5.19-4.22 10.36-4.22 10.36l-10.03-.1s-.79-15.25.11-20.4c.94-5.15-10.68-20.44-18.68-25.35-7.86-4.87-5.4-54.81-19.55-64.07-40.62-38.86-63.64 1.89-101.31 2.51-37.75.06-61.8-40.78-101.89-.55-14.3 9.72-11.99 59.64-19.91 64.54-8.01 4.91-19.57 19.04-18.66 23.92.87 4.84-.01 19.69-.01 19.69Z"/>
</g>
</svg>