<svg xmlns="http://www.w3.org/2000/svg" version="1.2" baseProfile="tiny" width="100%" height="100%" viewBox="0 0 400 600" preserveAspectRatio="xMinYMin meet">
<g transform="scale(1.01 1) translate(-2.0041322314049603 0)">
<path fill="#ddb7a0" stroke="#000" stroke-width="6" d="M20 600s-5-60 40-70c15 0 45-15 90-35l50-195 50 195c45 20 75 35 90 35 45 10 45 70 45 70"/>
</g>
<g transform="scale(1.01 1) translate(-1.980198019801982 0)">
<path fill="#3a4048" stroke="#000" stroke-width="6" d="M80 610s10-30 10-90l20-10s10 80 90 80 90-80 90-80l20 10c0 60 10 90 10 90z"/><path fill="#8a93a0" d="M85 575v25h230v-25h-65s-20 15-50 15-50-15-50-15z"/><path fill="none" stroke="#000" stroke-width="16" d="M90 520c0 60-10 90-10 90m230-90c0 60 10 90 10 90M110 510s10 80 90 80 90-80 90-80"/><path fill="none" stroke="#3a4048" stroke-width="12" d="M90 520c0 60-10 90-10 90m230-90c0 60 10 90 10 90M110 510s10 80 90 80 90-80 90-80"/><path fill="none" stroke="#e8ecf1" stroke-width="6" d="M90 520c0 60-10 90-10 90m230-90c0 60 10 90 10 90M110 510s10 80 90 80 90-80 90-80"/>
</g>
<g transform="translate(32 290.6) scale(0.85 0.85) translate(4.058823529411765 6.07058823529412) translate(11.879999999999999 -3)">
<path fill="#ddb7a0" stroke="#000" stroke-width="6" d="M43 13S23 3 13 3 3 23 3 33s3 20 13 30 27-10 27-10z"/>
</g>
<g transform="translate(322 290.6) scale(-0.85 0.85) translate(-50.05882352941177 6.07058823529412) translate(11.879999999999999 -3)">
<path fill="#ddb7a0" stroke="#000" stroke-width="6" d="M43 13S23 3 13 3 3 23 3 33s3 20 13 30 27-10 27-10z"/>
</g>
<g transform="scale(0.904 1) translate(21.23893805309734 0)">
<path fill="#ddb7a0" stroke="#000" stroke-width="6" d="M200 100c100 0 150 60 150 200 0 20-20 120-25 130-4.47 8.94-105 70-105 70h-40s-98.29-56.58-105-70c-5-10-25-110-25-130 0-140 50-200 150-200Z"/><path fill="rgba(0,0,0,0)" d="M200 410c30 0 50 10 50 10 30 0 90-15 90-120h10c0 20-20 120-25 130-4.47 8.94-105 70-105 70h-40s-98.29-56.58-105-70c-5-10-25-110-25-130h10c0 105 60 120 90 120 0 0 20-10 50-10"/><path fill="rgba(0,0,0,0)" d="M60 300H50c0-140 50-200 150-200s150 60 150 200h-10v-10c0-5-10-20-15-25s-5-55-15-65c-40-40-60 0-110 0s-70-40-110 0c-10 10-10 60-15 65s-15 20-15 25z"/>
</g>
<g>
<path fill="none" stroke="#000" stroke-width="2" d="M155 220s35 0 45 5c10-5 45-5 45-5"/>
</g>
<g transform="scale(0.904 1) translate(21.23893805309734 0)">
<path fill="#272421" fill-rule="evenodd" stroke="#000" d="M200 405c55 0 65 20 65 35s0 40-10 55c-5 10-5 15-5 15v30l-5 10-5-10-5 10-5-10v-30h-15v30l-5 10-5-10-5 15-5-15-5 10-5-10v-30h-15v30l-5 10-5-10-5 10-5-10v-30s0-5-5-15c-8.06-16.12-10-40-10-55s10-35 65-35Zm-50 35c5 20 10 30 30 30 10 0 10-15 20-15s10 15 20 15c20 0 25-10 30-30 4.85-19.4-20-20-50-20s-54.85.6-50 20Z"/><path fill="#3a4048" stroke="#000" d="M150 510h20v20h-20zm35 0h30v20h-30zm45 0h20v20h-20z"/>
</g>
<g transform="translate(99.23500000000001 289.1206538286518) rotate(7 40.76499999999999 20.879346171348168)">
<path d="M73.63 30.14S62.25 5.74 32.3 7.42C12.33 8.54 7.9 18.8 7.9 18.8l5.83 14.7c30.23 3.31 59.9-3.36 59.9-3.36" style="fill:#fff"/><path d="M40.63 30.99a9.99 9.99 0 0 0 9.42-10.55 9.985 9.985 0 0 0-10.54-9.42 10 10 0 0 0-9.43 10.54c.31 5.52 5.03 9.74 10.55 9.43" style="fill:#000"/><path d="M73.63 30.14S72.51 10.17 32.3 7.42C12.33 8.54 7.9 18.8 7.9 18.8l5.83 14.7" style="fill:none;stroke:#000;stroke-width:5"/>
</g>
<g transform="translate(219.235 289.1206538286518) rotate(-7 40.76499999999999 20.879346171348168) scale(-1 1) translate(-81.52999999999999 0)">
<path d="M73.63 30.14S62.25 5.74 32.3 7.42C12.33 8.54 7.9 18.8 7.9 18.8l5.83 14.7c30.23 3.31 59.9-3.36 59.9-3.36" style="fill:#fff"/><path d="M40.63 30.99a9.99 9.99 0 0 0 9.42-10.55 9.985 9.985 0 0 0-10.54-9.42 10 10 0 0 0-9.43 10.54c.31 5.52 5.03 9.74 10.55 9.43" style="fill:#000"/><path d="M73.63 30.14S72.51 10.17 32.3 7.42C12.33 8.54 7.9 18.8 7.9 18.8l5.83 14.7" style="fill:none;stroke:#000;stroke-width:5"/>
</g>
<g transform="translate(105 260.3333333333333) rotate(-15 35 9.66666666666667)">
<path fill="#272421" stroke="#000" d="M67 17c3-3 0-12 0-12H39C29 5 3 1 3 1S0 14 3 17s26 0 36 0 25 3 28 0Z"/>
</g>
<g transform="translate(225 260.3333333333333) rotate(15 35 9.66666666666667) scale(-1 1) translate(-70 0)">
<path fill="#272421" stroke="#000" d="M67 17c3-3 0-12 0-12H39C29 5 3 1 3 1S0 14 3 17s26 0 36 0 25 3 28 0Z"/>
</g>
<g transform="translate(0 10)">
<path d="M180 430h40" style="fill:none;stroke:#000;stroke-width:5"/>
</g>
<g transform="translate(144.4115 264.9735) scale(0.65 0.65) translate(29.93226923076923 56.55273076923076)">
<path fill="#ddb7a0" stroke="#000" stroke-width="5" d="M40.3 99.804c2.56 5.426 7.286 9.34 15.292 10.445 8.532-1.475 12.386-4.548 15.285-10.378"/>
</g>
</svg>