<svg xmlns="http://www.w3.org/2000/svg" version="1.2" baseProfile="tiny" width="100%" height="100%" viewBox="0 0 400 600" preserveAspectRatio="xMinYMin meet">
<g transform="scale(0.96 1) translate(8.33333333333334 0)">
<path fill="#5c3937" stroke="#000" stroke-width="6" d="M5 600s-5-60 35-70c0 0 40 0 90-30l70-200 70 200c50 30 90 30 90 30 40 10 35 70 35 70"/>
</g>
<g transform="scale(0.96 1) translate(8.333333333333341 0)">
<path fill="#F00BA1" stroke="#000" stroke-width="6" d="M80 610s10-30 10-90l20-10s10 80 90 80 90-80 90-80l20 10c0 60 10 90 10 90z"/><path fill="#F00BA2" d="M85 575v25h230v-25h-65s-20 15-50 15-50-15-50-15z"/><path fill="none" stroke="#000" stroke-width="16" d="M90 520c0 60-10 90-10 90m230-90c0 60 10 90 10 90M110 510s10 80 90 80 90-80 90-80"/><path fill="none" stroke="#F00BA1" stroke-width="12" d="M90 520c0 60-10 90-10 90m230-90c0 60 10 90 10 90M110 510s10 80 90 80 90-80 90-80"/><path fill="none" stroke="#F00BA3" stroke-width="6" d="M90 520c0 60-10 90-10 90m230-90c0 60 10 90 10 90M110 510s10 80 90 80 90-80 90-80"/>
</g>
<g transform="translate(32 290.6) scale(0.86 0.86) translate(3.7441860465116283 5.600000000000002) translate(5.370000000000001 -3)">
<path fill="#5c3937" stroke="#000" stroke-width="6" d="M43 13S23 3 13 3 3 23 3 33s3 20 13 30 27-10 27-10z"/>
</g>
<g transform="translate(322 290.6) scale(-0.86 0.86) translate(-49.74418604651162 5.600000000000002) translate(5.370000000000001 -3)">
<path fill="#5c3937" stroke="#000" stroke-width="6" d="M43 13S23 3 13 3 3 23 3 33s3 20 13 30 27-10 27-10z"/>
</g>
<g transform="scale(0.9460000000000001 1) translate(11.416490486257914 0)">
<path fill="#5c3937" stroke="#000" stroke-width="6" d="M200 100c100 0 150 60 150 200 0 70-30 120-40 130l-60 60s-20 10-50 10-50-10-50-10l-60-60c-10-10-40-60-40-130 0-140 50-200 150-200Z"/><path fill="rgba(0,0,0,0)" d="M200 410c30 0 50 10 50 10 30 0 90-15 90-120h10c0 70-30 120-40 130l-60 60s-20 10-50 10-50-10-50-10l-60-60c-10-10-40-60-40-130h10c0 105 60 120 90 120 0 0 20-10 50-10"/><path fill="rgba(0,0,0,0)" d="M60 300H50c0-140 50-200 150-200s150 60 150 200h-10v-10c0-5-10-20-15-25s-5-55-15-65c-40-40-60 0-110 0s-70-40-110 0c-10 10-10 60-15 65s-15 20-15 25z"/>
</g>
<g>
<path fill="none" stroke="#000" stroke-width="2" d="M300 320s5 5 10 5m-13.25-2.47S300 335 305 335m-205-15s-5 5-10 5m13.25-2.47S100 335 95 335"/>
</g>
<g>
<path d="m102 385 9.08-25m13.62 0-9.08 25m13.62 0 9.07-25m13.62 0-9.08 25m106.22 0 9.08-25m13.61 0-9.07 25m13.61 0 9.08-25m13.62 0-9.08 25" style="opacity:.251;mix-blend-mode:multiply;fill:none;stroke:#8b6135;stroke-width:4.4"/>
</g>
<g transform="scale(0.9460000000000001 1) translate(11.416490486257914 0)">
<path fill="#272421" stroke="#000" d="M340 300c0 105-85 140-85 140s-5 30-15 30c-30 0-30-10-40-10s-10 10-40 10c-10 0-15-30-15-30s-85-35-85-140H50c0 105 20 140 20 140s55 80 130 80 130-80 130-80 20-35 20-140zM150 425c-5-5 25-20 35-20 5 0 10 5 15 5s10-5 15-5c10 0 40 15 35 20s-5-5-50-5-45 10-50 5Z"/>
</g>
<g transform="translate(101.97070870858956 282.01425559511955) rotate(15 38.029291291410445 27.98574440488045)">
<path d="m6.19 40.49-.83-22.07s2.27-3.87 17.09.22c29.93 8.26 42.45 4.47 42.45 4.47l6.04 11.72s-7.05.61-29.88 2.61c-22.84 2-34.87 3.05-34.87 3.05" style="fill:#f5f3ee"/><path d="M38.86 36.14c-4.51.39-8.55-3.74-9.03-9.25s2.83-7.08 7.34-7.48c4.52-.39 8.51.54 8.99 6.05s-2.78 10.28-7.3 10.68" style="fill:#000"/><path d="M6.19 40.49S2.41 12.46 9.05 15.75c10.49 5.2 55.85 7.36 55.85 7.36l6.04 11.72" style="fill:none;stroke:#000;stroke-width:6"/>
</g>
<g transform="translate(221.97070870858954 282.01425559511955) rotate(-15 38.029291291410445 27.98574440488045) scale(-1 1) translate(-76.05858258282089 0)">
<path d="m6.19 40.49-.83-22.07s2.27-3.87 17.09.22c29.93 8.26 42.45 4.47 42.45 4.47l6.04 11.72s-7.05.61-29.88 2.61c-22.84 2-34.87 3.05-34.87 3.05" style="fill:#f5f3ee"/><path d="M38.86 36.14c-4.51.39-8.55-3.74-9.03-9.25s2.83-7.08 7.34-7.48c4.52-.39 8.51.54 8.99 6.05s-2.78 10.28-7.3 10.68" style="fill:#000"/><path d="M6.19 40.49S2.41 12.46 9.05 15.75c10.49 5.2 55.85 7.36 55.85 7.36l6.04 11.72" style="fill:none;stroke:#000;stroke-width:6"/>
</g>
<g transform="translate(99.82499568420577 257.4995916989505) rotate(15 40.175004315794226 12.50040830104949)">
<path fill="#272421" stroke="#000" d="M25.63 10.05c-1.19.67-3.29 2.29-4.68 3.61s-2.66 2.8-2.84 3.29-.13.96.1 1.04 3.5-.28 7.26-.79c3.76-.52 9.13-1.06 11.92-1.21 2.8-.15 9.17-.28 14.14-.29 4.98-.01 11.48.12 14.44.29s6.61.25 8.12.19c1.5-.05 3.59-.27 4.63-.47 1.65-.32 1.85-.53 1.46-1.57-.33-.91-1.38-1.55-4.09-2.53-2-.73-6.19-1.72-9.32-2.22-3.13-.49-8.67-1.19-12.3-1.55-3.64-.36-9.39-.72-12.78-.81-4.83-.11-7.02.06-10.04.83-2.12.53-4.83 1.52-6.02 2.19Z"/><path d="M0 10h5v5H0z" style="fill:none"/>
</g>
<g transform="translate(219.82499568420576 257.4995916989505) rotate(-15 40.175004315794226 12.50040830104949) scale(-1 1) translate(-80.35000863158845 0)">
<path fill="#272421" stroke="#000" d="M25.63 10.05c-1.19.67-3.29 2.29-4.68 3.61s-2.66 2.8-2.84 3.29-.13.96.1 1.04 3.5-.28 7.26-.79c3.76-.52 9.13-1.06 11.92-1.21 2.8-.15 9.17-.28 14.14-.29 4.98-.01 11.48.12 14.44.29s6.61.25 8.12.19c1.5-.05 3.59-.27 4.63-.47 1.65-.32 1.85-.53 1.46-1.57-.33-.91-1.38-1.55-4.09-2.53-2-.73-6.19-1.72-9.32-2.22-3.13-.49-8.67-1.19-12.3-1.55-3.64-.36-9.39-.72-12.78-.81-4.83-.11-7.02.06-10.04.83-2.12.53-4.83 1.52-6.02 2.19Z"/><path d="M0 10h5v5H0z" style="fill:none"/>
</g>
<g transform="translate(168 428.3888888888889) scale(-1 1) translate(-64 0)">
<path d="M32 3c10 0 15 0 25 5 5 5 5 5 0 10s-15 0-25 0-20 5-25 0-5-5 0-10c10-5 15-5 25-5Z" style="fill:#fff;stroke:#000;stroke-width:5"/>
</g>
<g transform="translate(0 7.5) scale(0.89 0.89) translate(24.7191011235955 44.803370786516844)">
<path fill="#5c3937" stroke="#000" stroke-width="5" d="M190 325s-5 20-5 45c-20-5-15 15-15 20 20 0 15 10 30 10s10-10 30-10c0-5 5-25-15-20 0-25-5-45-5-45"/>
</g>
<g transform="scale(-1 1) translate(-390.95000000000005 0) scale(0.9460000000000001 1) translate(11.15819238900633 0)">
<path fill="#272421" stroke="#000" stroke-width="4" d="M37.17 332.53c6.66-10.67 10.33-36.33 10.33-36.33s-11.67 7.13-22.67 9.66c10-13.33 22.92-52.06 22.92-52.06s-10.25 8.06-20.92 7.73c30.34-49.67 10.75-84.26 65.34-123 0 0-13.09-2.26-25.67-10.33 37.88-2.4 64.75-46.9 129.25-38.4 0 0-5.5-10.5-27-21.5 69.5-1 86.5 36.5 86.5 36.5s16.5-7.5 25 14c64.5 9.5 58.5 97 83 140-8.88-1.4-16.5-7.5-16.5-7.5s3.87 27.1 19.37 50.6c-9.5-2.75-21.29-10.04-21.29-10.04s8.29 22.29 11.55 28.79C344.12 315.9 333.75 300 333.75 300s-5.58 24.86-22 41.8c9.75-25.94 8.5-58 8.5-58l-15-31L310 200c-40-40-70.25-1.7-132.25-2.7-81.53-1.32-100 86.5-100 86.5s.08 21.73 7.75 56.73c-17-11.67-24.33-48.33-24.33-43.33s-12.67 31-24 35.33Z"/><path d="M114 190s32.25-4.8 76-55m-43 43s56.75 2.7 103-36m-110-3s38.75-54.3 93-34" style="fill:none;stroke:#000;stroke-width:5"/>
</g>
</svg>