<svg xmlns="http://www.w3.org/2000/svg" version="1.2" baseProfile="tiny" width="100%" height="100%" viewBox="0 0 400 600" preserveAspectRatio="xMinYMin meet">
<g transform="scale(0.99 1) translate(2.0446197512313233 0)">
<path fill="#ddb7a0" stroke="#000" stroke-width="6" d="M20 600s-5-60 40-70c15 0 45-15 90-35l50-195 50 195c45 20 75 35 90 35 45 10 45 70 45 70"/>
</g>
<g transform="scale(0.99 1) translate(2.020202020202022 0)">
<path fill="#3a4048" stroke="#000" stroke-width="6" d="M80 610s10-30 10-90l20-10s10 80 90 80 90-80 90-80l20 10c0 60 10 90 10 90z"/><path fill="#8a93a0" d="M85 575v25h230v-25h-65s-20 15-50 15-50-15-50-15z"/><path fill="none" stroke="#000" stroke-width="16" d="M90 520c0 60-10 90-10 90m230-90c0 60 10 90 10 90M110 510s10 80 90 80 90-80 90-80"/><path fill="none" stroke="#3a4048" stroke-width="12" d="M90 520c0 60-10 90-10 90m230-90c0 60 10 90 10 90M110 510s10 80 90 80 90-80 90-80"/><path fill="none" stroke="#e8ecf1" stroke-width="6" d="M90 520c0 60-10 90-10 90m230-90c0 60 10 90 10 90M110 510s10 80 90 80 90-80 90-80"/>
</g>
<g transform="translate(32 293.3) scale(1.35 1.35) translate(-5.962962962962965 -8.218518518518522) translate(6.919999999999998 -3)">
<path fill="#ddb7a0" stroke="#000" stroke-width="6" d="M43 8S3-12 3 28c0 45 40 30 40 30z"/>
</g>
<g transform="translate(322 293.3) scale(-1.35 1.35) translate(-40.03703703703704 -8.218518518518522) translate(6.919999999999998 -3)">
<path fill="#ddb7a0" stroke="#000" stroke-width="6" d="M43 8S3-12 3 28c0 45 40 30 40 30z"/>
</g>
<g transform="scale(0.936 1) translate(13.675213675213664 0)">
<path fill="#ddb7a0" stroke="#000" stroke-width="6" d="M200 100c100 0 150 60 150 200 0 20-5 100-25 130-10 20-45 50-85 55-5 5-15 15-40 15s-35-10-40-15c-35-5-75-35-85-55-20-30-25-110-25-130 0-140 50-200 150-200Z"/><path fill="rgba(0,0,0,0)" d="M200 410c30 0 50 10 50 10 30 0 90-15 90-120h10c0 20-5 100-25 130-10 20-45 50-85 55-5 5-15 15-40 15s-35-10-40-15c-35-5-75-35-85-55-20-30-25-110-25-130h10c0 105 60 120 90 120 0 0 20-10 50-10"/><path fill="rgba(0,0,0,0)" d="M60 300H50c0-140 50-200 150-200s150 60 150 200h-10v-10c0-5-10-20-15-25s-5-55-15-65c-40-40-60 0-110 0s-70-40-110 0c-10 10-10 60-15 65s-15 20-15 25z"/>
</g>
<g transform="translate(144.4807306749833 416) scale(1.39 1.39) translate(-1.5485719688895798 -5.33093525179856)">
<path fill="none" stroke="#000" stroke-width="2" d="M9 2s-12.5 8.95-4 34"/>
</g>
<g transform="translate(244.4807306749833 416) scale(-1.39 1.39) translate(-9.489966681143835 -5.33093525179856)">
<path fill="none" stroke="#000" stroke-width="2" d="M9 2s-12.5 8.95-4 34"/>
</g>
<g>
<path fill="none" stroke="#000" stroke-width="2" d="M200 270v-15l5-5-5 5-5-5"/>
</g>
<g transform="scale(0.936 1) translate(13.675213675213664 0)">
<path fill="#272421" fill-rule="evenodd" stroke="#000" d="M200 410c45 0 50 10 50 10 30 0 90-15 90-120h10c0 130-30 150-40 160s-60 60-110 60-100-50-110-60-40-30-40-160h10c0 105 60 120 90 120 0 0 5-10 50-10Zm-45 30c0 20 5 30 25 30 10 0 10-10 20-10s10 10 20 10c20 0 25-10 25-30s-15-20-45-20-45 0-45 20Z"/>
</g>
<g transform="translate(102.8498332560182 285.49) rotate(11 37.15016674398179 24.509999999999998)">
<path d="M5.55 33.46S17.01 4.81 39.93 4.81s28.65 28.65 28.65 28.65-5.73 11.46-28.65 11.46S5.55 33.46 5.55 33.46" style="fill:#f5f3ee"/><path d="M5.55 33.46C2.68 30.6 17.08 4.1 40 4.1s31.44 26.5 28.58 29.36c-2.87 2.87-5.73-17.19-28.65-17.19S8.41 36.33 5.55 33.46" style="fill:#000"/><path d="M39.93 38.04c-6.34 0-11.46-5.12-11.46-11.46 0-6.33 5.12-11.46 11.46-11.46s11.46 5.13 11.46 11.46c0 6.34-5.12 11.46-11.46 11.46" style="fill:#000"/>
</g>
<g transform="translate(222.8498332560182 285.49) rotate(-11 37.15016674398179 24.509999999999998) scale(-1 1) translate(-74.30033348796358 0)">
<path d="M5.55 33.46S17.01 4.81 39.93 4.81s28.65 28.65 28.65 28.65-5.73 11.46-28.65 11.46S5.55 33.46 5.55 33.46" style="fill:#f5f3ee"/><path d="M5.55 33.46C2.68 30.6 17.08 4.1 40 4.1s31.44 26.5 28.58 29.36c-2.87 2.87-5.73-17.19-28.65-17.19S8.41 36.33 5.55 33.46" style="fill:#000"/><path d="M39.93 38.04c-6.34 0-11.46-5.12-11.46-11.46 0-6.33 5.12-11.46 11.46-11.46s11.46 5.13 11.46 11.46c0 6.34-5.12 11.46-11.46 11.46" style="fill:#000"/>
</g>
<g transform="translate(100.5 257.50129968019115) rotate(1 39.5 12.498700319808862)">
<path fill="#272421" stroke="#000" d="M79 12.9c0-6.11-7.5-6.11-7.5-6.11-18.75-3.05-41.65 3.28-52.5 9.16C49 12.9 56.5 19 75.25 19c0 0 3.75 0 3.75-6.1Z"/><path d="M0 10h5v5H0z" style="fill:none"/>
</g>
<g transform="translate(220.5 257.50129968019115) rotate(-1 39.5 12.498700319808862) scale(-1 1) translate(-79 0)">
<path fill="#272421" stroke="#000" d="M79 12.9c0-6.11-7.5-6.11-7.5-6.11-18.75-3.05-41.65 3.28-52.5 9.16C49 12.9 56.5 19 75.25 19c0 0 3.75 0 3.75-6.1Z"/><path d="M0 10h5v5H0z" style="fill:none"/>
</g>
<g transform="translate(155 427) scale(-1 1) translate(-90 0)">
<path d="M5 3s13.33 20 40 20S85 3 85 3 65 5.22 45 5.22 5 3 5 3Z" style="fill:#fff;stroke:#000;stroke-width:5"/>
</g>
<g transform="translate(0 77.5) scale(0.98 0.98) translate(4.081632653061228 5.969387755102046)">
<path fill="#ddb7a0" stroke="#000" stroke-width="5" d="M190 300c-5-15 5-15 10-15s15 0 10 15"/>
</g>
<g transform="scale(0.936 1) translate(13.654269305428583 0)">
<path fill="#272421" stroke="#000" stroke-width="4" d="M60 310H50s-.19-5 0-10C60 40-10 145 200 80c34.77-10.76 43.79-21.21 65 0 5 5 5 45 5 45s3.04-26.26 10-25c110 20 60-20 70 200 .23 4.99 0 10 0 10h-10v-20c0-5-10-20-15-25s-5-65-15-75-60 10-110 10-100-20-110-10-10 70-15 75-15 20-15 25z"/>
</g>
</svg>