<svg xmlns="http://www.w3.org/2000/svg" version="1.2" baseProfile="tiny" width="100%" height="100%" viewBox="0 0 400 600" preserveAspectRatio="xMinYMin meet">
<g transform="scale(0.98 1) translate(4.081632653061228 0)">
<path fill="#ddb7a0" stroke="#000" stroke-width="6" d="M10 600s-10-70 50-70c10 0 0-10 60-20 0 0 50-210 80-210s80 210 80 210c60 10 50 20 60 20 60 0 50 70 50 70"/><path d="M71 545s46.9-3 82.1 10M329 545s-46.9-3-82.1 10m77.1-18s5.5-7.5 22-7m-271 7s-5.5-7.5-22-7"/>
</g>
<g transform="scale(0.98 1) translate(4.081632653061228 0)">
<path fill="#F00BA1" stroke="#000" stroke-width="6" d="M80 610s10-30 10-90l20-10s10 80 90 80 90-80 90-80l20 10c0 60 10 90 10 90z"/><path fill="#F00BA2" d="M85 575v25h230v-25h-65s-20 15-50 15-50-15-50-15z"/><path fill="none" stroke="#000" stroke-width="16" d="M90 520c0 60-10 90-10 90m230-90c0 60 10 90 10 90M110 510s10 80 90 80 90-80 90-80"/><path fill="none" stroke="#F00BA1" stroke-width="12" d="M90 520c0 60-10 90-10 90m230-90c0 60 10 90 10 90M110 510s10 80 90 80 90-80 90-80"/><path fill="none" stroke="#F00BA3" stroke-width="6" d="M90 520c0 60-10 90-10 90m230-90c0 60 10 90 10 90M110 510s10 80 90 80 90-80 90-80"/>
</g>
<g transform="translate(33.53553390593274 291.01362954285077) scale(1.37 1.37) translate(-5.796972594748095 -9.178800780397967) translate(19.391067811865476 -2.979591836734694)">
<path fill="#ddb7a0" stroke="#000" stroke-width="6" d="M40 14S10-1 5 4s0 30 5 40-5 25 30 20z"/>
</g>
<g transform="translate(323.53553390593277 291.01362954285077) scale(-1.37 1.37) translate(-37.131959593386426 -9.178800780397967) translate(19.391067811865476 -2.979591836734694)">
<path fill="#ddb7a0" stroke="#000" stroke-width="6" d="M40 14S10-1 5 4s0 30 5 40-5 25 30 20z"/>
</g>
<g transform="scale(0.8560000000000001 1) translate(33.64485981308409 0)">
<path fill="#ddb7a0" stroke="#000" stroke-width="6" d="M200 100c100 0 150 60 150 200 0 70-30 150-40 160s-60 40-110 40-100-30-110-40-40-90-40-160c0-140 50-200 150-200Z"/><path fill="rgba(0,0,0,0)" d="M200 410c30 0 50 10 50 10 30 0 90-15 90-120h10c0 70-30 150-40 160s-60 40-110 40-100-30-110-40-40-90-40-160h10c0 105 60 120 90 120 0 0 20-10 50-10"/><path fill="rgba(0,0,0,0)" d="M60 300H50c0-140 50-200 150-200s150 60 150 200h-10v-10c0-5-10-20-15-25s-5-55-15-65c-40-40-60 0-110 0s-70-40-110 0c-10 10-10 60-15 65s-15 20-15 25z"/>
</g>
<g>
<path fill="none" stroke="#000" stroke-width="2" d="M300 320s5 5 10 5m-13.25-2.47S300 335 305 335m-205-15s-5 5-10 5m13.25-2.47S100 335 95 335"/>
</g>
<g>
<path fill="none" stroke="#000" stroke-width="2" d="M180 465s10-5 20-5 20 5 20 5"/>
</g>
<g transform="scale(0.8560000000000001 1) translate(33.64485981308409 0)">
<path fill="#272421" stroke="#000" d="M205 420c-4 0-5-5-.8-10 5.8-5 15.8-5 15.8-5 15 0 35 15 35 25 0 30 10 55 5 60s-15 5-20 0 5-40 5-55-15-15-40-15Zm-10 0c4 0 5-5 0-10s-15-5-15-5c-16 0-35 15-35 25 0 30-10 55-5 60s15 5 20 0-5-40-5-55 15-15 40-15Z"/>
</g>
<g transform="translate(98.84448468063304 285.57536672288046) rotate(15 41.155515319366955 24.42463327711953)">
<path d="M73.67 39.73c3.92-10.47 2.35-25.38 2.35-25.38s-35.86-6.27-45.8-5.22c-9.95 1.04-24.34 7.59-24.34 7.59s-1.44 10.21 7.6 24.34z" style="fill:#fff"/><path d="M45.8 37.65c-4.13.43-8.17-5.88-9.04-14.13s1.76-15.27 5.89-15.71c4.12-.43 8.16 5.88 9.03 14.13s-1.76 15.27-5.88 15.71" style="fill:#000"/><path d="M73.67 39.73c4.45-5.49 2.35-25.38 2.35-25.38s-35.86-6.27-45.8-5.22c-9.95 1.04-24.34 7.59-24.34 7.59s1.57 14.92 7.6 24.34" style="fill:none;stroke:#000;stroke-width:5"/>
</g>
<g transform="translate(218.84448468063306 285.57536672288046) rotate(-15 41.155515319366955 24.42463327711953) scale(-1 1) translate(-82.31103063873391 0)">
<path d="M73.67 39.73c3.92-10.47 2.35-25.38 2.35-25.38s-35.86-6.27-45.8-5.22c-9.95 1.04-24.34 7.59-24.34 7.59s-1.44 10.21 7.6 24.34z" style="fill:#fff"/><path d="M45.8 37.65c-4.13.43-8.17-5.88-9.04-14.13s1.76-15.27 5.89-15.71c4.12-.43 8.16 5.88 9.03 14.13s-1.76 15.27-5.88 15.71" style="fill:#000"/><path d="M73.67 39.73c4.45-5.49 2.35-25.38 2.35-25.38s-35.86-6.27-45.8-5.22c-9.95 1.04-24.34 7.59-24.34 7.59s1.57 14.92 7.6 24.34" style="fill:none;stroke:#000;stroke-width:5"/>
</g>
<g transform="translate(105 260.3333333333333) rotate(-11 35 9.66666666666667)">
<path fill="#272421" stroke="#000" d="M67 17c3-3 0-12 0-12H39C29 5 3 1 3 1S0 14 3 17s26 0 36 0 25 3 28 0Z"/>
</g>
<g transform="translate(225 260.3333333333333) rotate(11 35 9.66666666666667) scale(-1 1) translate(-70 0)">
<path fill="#272421" stroke="#000" d="M67 17c3-3 0-12 0-12H39C29 5 3 1 3 1S0 14 3 17s26 0 36 0 25 3 28 0Z"/>
</g>
<g transform="translate(0 51.49291359400189) scale(-1 1) translate(-400 0)">
<path d="M167 382s10-8.86 33-9c16.67-.1 34 9 34 9s-11.33 21.31-34 22c-22.32.68-33-22-33-22" style="opacity:.05;mix-blend-mode:multiply;fill:#501414"/><path d="M176 384s14-4 24-4 24 4 24 4-8 8-24 8-24-8-24-8" style="fill:#fff"/><path d="M176 384s14-4 24-4 24 4 24 4-8 8-24 8-24-8-24-8Z" style="fill:none;stroke:#000;stroke-width:4"/><path d="M180 376c16-4 24-4 40 0" style="fill:none;stroke:#000;stroke-width:1"/><path d="M166 382s5 3.19 10 2m58-2s-5 3.19-10 2" style="fill:none;stroke:#000;stroke-width:4"/><path d="M185.71 400.69c15.15 4.14 16.29 3.86 29.15-.57" style="fill:none;stroke:#000;stroke-width:1"/>
</g>
<g transform="translate(174.5 336.5) scale(0.77 0.77) translate(7.616883116883116 10.006493506493506)">
<path fill="#ddb7a0" stroke="#000" stroke-width="5" d="m28 1 20 45s-5 20-25 20S3 46 3 46"/>
</g>
<g transform="scale(0.8560000000000001 1) translate(33.64485981308409 0)">
<path fill="#272421" stroke="#000" stroke-width="4" d="M53.25 329.3S50 313.5 50 300c0-140 50-200 150-200s150 60 150 200c0 12-5.25 40.3-5.25 40.3-5-18.5-11.5-52-11.5-52S330 270 325 265s-5-55-15-65c-40-40-60 0-110 0s-70-40-110 0c-10 10-10 60-15 65s-10.25 19.3-10.25 19.3-7 30.5-11.5 45Z"/><path fill="#272421" d="M76 199s-8.25 40.3 12 66c5.75-23.7 16-47 16-47s-2.25 22.3 3 37c13.25-14.7 31-67 31-67s-4 42.59-.25 58.3C143.5 230.59 148 219 148 219s2.25 22.8 6.25 38.3C166.75 240.8 179 180 179 180s-8.25 57.3-1.25 70.8c9-12.5 10.25-38.8 10.25-38.8s12 23.3 15.75 44.8c12-13 16.25-62.8 16.25-62.8s10.3 42.72 21 50c5.3-5.88 0-59 0-59s22.17 58.53 36 67c3.5-12.14-1-35-1-35s12.17 28.86 23.5 38.2c1.67-9.67-7.67-47.34-7.67-47.34s24.67 44.34 28.15 61.25c8.85-20.91 3.19-74.25 3.19-74.25L271 157l-136-3z"/><path fill="none" stroke="#000" stroke-width="4" d="M76 199s-8.25 40.3 12 66c5.75-23.7 16-47 16-47s-2.25 22.3 3 37c13.25-14.7 31-67 31-67s-4 42.59-.25 58.3C143.5 230.59 148 219 148 219s2.25 22.8 6.25 38.3C166.75 240.8 179 180 179 180s-8.25 57.3-1.25 70.8c9-12.5 13.5-40.5 13.5-40.5s8.75 25 12.5 46.5c12-13 16.25-62.8 16.25-62.8s10.3 42.72 21 50c5.3-5.88 0-59 0-59s22.17 58.53 36 67c3.5-12.14-1-35-1-35s12.17 28.86 23.5 38.2c1.67-9.67-7.67-47.34-7.67-47.34s24.67 44.34 28.15 61.25c8.85-20.91 3.19-74.25 3.19-74.25"/>
</g>
<g transform="scale(0.8560000000000001 1) translate(33.64485981308409 0)">
<path fill="#333" stroke="#000" stroke-width="2" d="M195 285h10s35-10 65-10 50 10 50 10 0 5 10 5v30c-10 0-10 5-10 5s-20 20-50 20c-60 0-65-35-65-35 0-5-10-5-10 0 0 0-5 35-65 35-30 0-50-20-50-20s0-5-10-5v-30c10 0 10-5 10-5s20-10 50-10 65 10 65 10ZM90 295c0 20 0 40 40 40 50 0 50-30 50-30v-10s-20-10-50-10c-40 0-40 10-40 10Zm130 10s0 30 50 30c40 0 40-20 40-40 0 0 0-10-40-10-30 0-50 10-50 10z"/><path fill="rgba(150,150,175,.5)" d="M90 295s0-10 40-10c30 0 50 10 50 10v10s0 30-50 30c-40 0-40-20-40-40m180 40c-50 0-50-30-50-30v-10s20-10 50-10c40 0 40 10 40 10 0 20 0 40-40 40"/><path fill="#F00BA2" stroke="#000" stroke-width="2" d="M350 320v-30h-20v30zm-280 0v-30H50v30z"/><path fill="none" stroke="#fff" stroke-width="2" d="m280 315 10-20m0 20 10-20m-160 20 10-20m0 20 10-20"/>
</g>
</svg>