<svg xmlns="http://www.w3.org/2000/svg" version="1.2" baseProfile="tiny" width="100%" height="100%" viewBox="0 0 400 600" preserveAspectRatio="xMinYMin meet">
<g transform="scale(0.99 1) translate(2.0202020202020217 0)">
<path fill="#bb876f" stroke="#000" stroke-width="6" d="M5 600s-5-60 35-70c0 0 40 0 90-30l70-200 70 200c50 30 90 30 90 30 40 10 35 70 35 70"/>
</g>
<g transform="scale(0.99 1) translate(2.020202020202022 0)">
<path fill="#F00BA1" stroke="#000" stroke-width="6" d="M80 610s10-30 10-90l20-10s10 80 90 80 90-80 90-80l20 10c0 60 10 90 10 90z"/><path fill="#F00BA2" d="M85 575v25h230v-25h-65s-20 15-50 15-50-15-50-15z"/><path fill="none" stroke="#000" stroke-width="16" d="M90 520c0 60-10 90-10 90m230-90c0 60 10 90 10 90M110 510s10 80 90 80 90-80 90-80"/><path fill="none" stroke="#F00BA1" stroke-width="12" d="M90 520c0 60-10 90-10 90m230-90c0 60 10 90 10 90M110 510s10 80 90 80 90-80 90-80"/><path fill="none" stroke="#F00BA3" stroke-width="6" d="M90 520c0 60-10 90-10 90m230-90c0 60 10 90 10 90M110 510s10 80 90 80 90-80 90-80"/>
</g>
<g transform="translate(32 290.6) scale(0.81 0.81) translate(5.395061728395061 8.069135802469134) translate(0.7199999999999998 -3)">
<path fill="#bb876f" stroke="#000" stroke-width="6" d="M43 13S23 3 13 3 3 23 3 33s3 20 13 30 27-10 27-10z"/>
</g>
<g transform="translate(322 290.6) scale(-0.81 0.81) translate(-51.39506172839506 8.069135802469134) translate(0.7199999999999998 -3)">
<path fill="#bb876f" stroke="#000" stroke-width="6" d="M43 13S23 3 13 3 3 23 3 33s3 20 13 30 27-10 27-10z"/>
</g>
<g transform="scale(0.9760000000000001 1) translate(4.918032786885227 0)">
<path fill="#bb876f" stroke="#000" stroke-width="6" d="M200 100c100 0 150 60 150 200 0 0-5.15 110.6-10 130-5 20-60 70-140 70S65 450 60 430c-4.85-19.4-10-130-10-130 0-140 50-200 150-200Z"/><path fill="rgba(0,0,0,0)" d="M60 300H50c0-140 50-200 150-200s150 60 150 200h-10v-10c0-5-10-20-15-25s-5-55-15-65c-40-40-60 0-110 0s-70-40-110 0c-10 10-10 60-15 65s-15 20-15 25z"/><path fill="rgba(0,0,0,0)" d="M200 410c30 0 50 10 50 10 30 0 90-15 90-120h10s0 80-10 130c-5 20-60 70-140 70S65 450 60 430c-10-50-10-130-10-130h10c0 105 60 120 90 120 0 0 20-10 50-10"/>
</g>
<g>
<path fill="none" stroke="#000" stroke-width="2" d="M235 285s10-10 45-10m-115 10s-10-10-45-10"/>
</g>
<g transform="translate(147 424.5) scale(0.35 0.35) translate(5.571428571428572 19.5)">
<path fill="none" stroke="#000" stroke-width="2" d="m0 20 6-10-6-9"/>
</g>
<g transform="translate(247 424.5) scale(-0.35 0.35) translate(-11.571428571428575 19.5)">
<path fill="none" stroke="#000" stroke-width="2" d="m0 20 6-10-6-9"/>
</g>
<g transform="translate(-129.75510204081633 -22) rotate(12 269.7551020408163 332)">
<path d="M240 340c0-4-6-20 24-20 20 0 36 8 36 12s-12 12-20 12c-4 0-40 0-40-4Z" style="fill:#fff;stroke:#000;stroke-width:5"/><path d="M268 340c-3.32 0-6-3.58-6-8s2.68-8 6-8 6 3.58 6 8-2.68 8-6 8Z" style="fill:#000;stroke:#000;stroke-width:5"/>
</g>
<g transform="translate(-9.755102040816325 -22) rotate(-12 269.7551020408163 332) scale(-1 1) translate(-539.5102040816327 0)">
<path d="M240 340c0-4-6-20 24-20 20 0 36 8 36 12s-12 12-20 12c-4 0-40 0-40-4Z" style="fill:#fff;stroke:#000;stroke-width:5"/><path d="M268 340c-3.32 0-6-3.58-6-8s2.68-8 6-8 6 3.58 6 8-2.68 8-6 8Z" style="fill:#000;stroke:#000;stroke-width:5"/>
</g>
<g transform="translate(97 257.6503955087335) rotate(3 43 12.349604491266511)">
<path fill="#272421" stroke="#000" d="M83 13C83 3 73 3 73 3 48-2 17.46 8.36 3 18c40-5 50 5 75 5 0 0 5 0 5-10Z"/>
</g>
<g transform="translate(217 257.6503955087335) rotate(-3 43 12.349604491266511) scale(-1 1) translate(-86 0)">
<path fill="#272421" stroke="#000" d="M83 13C83 3 73 3 73 3 48-2 17.46 8.36 3 18c40-5 50 5 75 5 0 0 5 0 5-10Z"/>
</g>
<g transform="translate(169 424.5)">
<path d="M11 8S4.33 28 31 28 51 8 51 8 41 4.37 31 4.37 11 8 11 8Zm50-5L51 8M1 3l10 5" style="fill:#fff;stroke:#000;stroke-width:5"/>
</g>
<g transform="translate(160 318.75) scale(0.76 0.76) translate(16.140350877192983 16.184210526315788)">
<path fill="#bb876f" stroke="#000" stroke-width="5" d="M40 40s50-30 0 30"/>
</g>
<g transform="scale(0.9760000000000001 1) translate(4.918032786885227 0)">
<path fill="#272421" stroke="#000" stroke-width="4" d="M60 310H50v-10c0-65-5-145-5-150 0-10 5-20 5-20l10 10 6-20 14 10 5-20 15 10 5-20 15 10 8-22 12 12 8-20 12 16 10-21 10 21 10-21 10 21 10-21 10 21 10-21 10 21 12-16 8 20 12-12 8 24.37L290 100l10 20 12-9.96 8 19.96 14-10 6 20 10-10s5 10 5 20c0 5-5 85-5 150v10h-10v-20c0-5-10-20-15-25s-5-55-15-65-60 0-110 0-100-10-110 0-10 60-15 65-15 20-15 25z"/>
</g>
</svg>