<svg xmlns="http://www.w3.org/2000/svg" version="1.2" baseProfile="tiny" width="100%" height="100%" viewBox="0 0 400 600" preserveAspectRatio="xMinYMin meet">
<g transform="scale(1 1) translate(0 0)">
<path fill="#a67358" stroke="#000" stroke-width="6" d="M10 600s0-50 60-70 70-50 70-50l60-180 60 180s10 30 70 50 60 70 60 70"/>
</g>
<g transform="scale(1 1) translate(0 0)">
<path fill="#3a4048" stroke="#000" stroke-width="6" d="M80 610s10-30 10-90l20-10s10 80 90 80 90-80 90-80l20 10c0 60 10 90 10 90z"/><path fill="#8a93a0" d="M85 575v25h230v-25h-65s-20 15-50 15-50-15-50-15z"/><path fill="none" stroke="#000" stroke-width="16" d="M90 520c0 60-10 90-10 90m230-90c0 60 10 90 10 90M110 510s10 80 90 80 90-80 90-80"/><path fill="none" stroke="#3a4048" stroke-width="12" d="M90 520c0 60-10 90-10 90m230-90c0 60 10 90 10 90M110 510s10 80 90 80 90-80 90-80"/><path fill="none" stroke="#e8ecf1" stroke-width="6" d="M90 520c0 60-10 90-10 90m230-90c0 60 10 90 10 90M110 510s10 80 90 80 90-80 90-80"/>
</g>
<g transform="translate(33.53553390593274 291.01362954285077) scale(0.83 0.83) translate(4.396336428905344 6.961063828572736) translate(19.701067811865475 -2.979591836734694)">
<path fill="#a67358" stroke="#000" stroke-width="6" d="M40 14S10-1 5 4s0 30 5 40-5 25 30 20z"/>
</g>
<g transform="translate(323.53553390593277 291.01362954285077) scale(-0.83 0.83) translate(-47.32526861703987 6.961063828572736) translate(19.701067811865475 -2.979591836734694)">
<path fill="#a67358" stroke="#000" stroke-width="6" d="M40 14S10-1 5 4s0 30 5 40-5 25 30 20z"/>
</g>
<g transform="scale(0.8540000000000001 1) translate(34.19203747072597 0)">
<path fill="#a67358" stroke="#000" stroke-width="6" d="M200 100c100 0 150 60 150 200 0 0-5.15 110.6-10 130-5 20-60 70-140 70S65 450 60 430c-4.85-19.4-10-130-10-130 0-140 50-200 150-200Z"/><path fill="rgba(0,0,0,0.06)" d="M60 300H50c0-140 50-200 150-200s150 60 150 200h-10v-10c0-5-10-20-15-25s-5-55-15-65c-40-40-60 0-110 0s-70-40-110 0c-10 10-10 60-15 65s-15 20-15 25z"/><path fill="rgba(0,0,0,0.06)" d="M200 410c30 0 50 10 50 10 30 0 90-15 90-120h10s0 80-10 130c-5 20-60 70-140 70S65 450 60 430c-10-50-10-130-10-130h10c0 105 60 120 90 120 0 0 20-10 50-10"/>
</g>
<g>
<path fill="none" stroke="#000" stroke-width="2" d="M240 340s10 10 25 10m-105-10s-10 10-25 10"/>
</g>
<g transform="translate(147 424.5) scale(1.3 1.3) translate(-0.6923076923076924 -2.4230769230769234)">
<path fill="none" stroke="#000" stroke-width="2" d="m0 20 6-10-6-9"/>
</g>
<g transform="translate(247 424.5) scale(-1.3 1.3) translate(-5.3076923076923075 -2.4230769230769234)">
<path fill="none" stroke="#000" stroke-width="2" d="m0 20 6-10-6-9"/>
</g>
<g transform="translate(102.5 287.5) rotate(-7 37.5 22.5)">
<path d="M10 35 5 20s15-10 30-10 35 15 35 15l-5 10z" style="fill:#f5f3ee"/><path d="M37.93 32.78c-4.53 0-8.2-3.66-8.2-8.2 0-4.53 3.67-8.19 8.2-8.19s8.19 3.66 8.19 8.19c0 4.54-3.66 8.2-8.19 8.2" style="fill:#000"/><path d="M10 35 5 20.72S25 10 35 10s35 15 35 15l-5 10" style="fill:none;stroke:#000;stroke-width:6"/>
</g>
<g transform="translate(222.5 287.5) rotate(7 37.5 22.5) scale(-1 1) translate(-75 0)">
<path d="M10 35 5 20s15-10 30-10 35 15 35 15l-5 10z" style="fill:#f5f3ee"/><path d="M37.93 32.78c-4.53 0-8.2-3.66-8.2-8.2 0-4.53 3.67-8.19 8.2-8.19s8.19 3.66 8.19 8.19c0 4.54-3.66 8.2-8.19 8.2" style="fill:#000"/><path d="M10 35 5 20.72S25 10 35 10s35 15 35 15l-5 10" style="fill:none;stroke:#000;stroke-width:6"/>
</g>
<g transform="translate(100.5 257.50129968019115) rotate(-3 39.5 12.498700319808862)">
<path fill="#1c1008" stroke="#000" d="M79 12.9c0-6.11-7.5-6.11-7.5-6.11-18.75-3.05-41.65 3.28-52.5 9.16C49 12.9 56.5 19 75.25 19c0 0 3.75 0 3.75-6.1Z"/><path d="M0 10h5v5H0z" style="fill:none"/>
</g>
<g transform="translate(220.5 257.50129968019115) rotate(3 39.5 12.498700319808862) scale(-1 1) translate(-79 0)">
<path fill="#1c1008" stroke="#000" d="M79 12.9c0-6.11-7.5-6.11-7.5-6.11-18.75-3.05-41.65 3.28-52.5 9.16C49 12.9 56.5 19 75.25 19c0 0 3.75 0 3.75-6.1Z"/><path d="M0 10h5v5H0z" style="fill:none"/>
</g>
<g transform="translate(-2.842170943040401e-14 51.52119068455602) scale(-1 1) translate(-400.00000000000006 0)">
<path d="M168 384s9-13.77 32-14.03c17.4-.2 32 13.2 32 13.2s-4.29 23.24-32 23.81c-27.29.56-32-22.98-32-22.98" style="opacity:.05;mix-blend-mode:multiply;fill:#501414"/><path d="M181.71 402.12c14.52 5.66 24.72 5.71 37.72-.71m.86-26.53c-14.52-5.66-27.29-6.34-40.29.09m-4 9.03c8-2.17 16 0 24 0s16-2.17 24 0m12-4s0 4-12 4m-60-4s0 4 12 4" style="fill:none;stroke:#000;stroke-width:4"/>
</g>
<g transform="translate(168.19198795027955 347.310851842392) scale(-1.08 1.08) translate(-61.25987505872085 -1.6806776413042974)">
<path fill="#a67358" stroke="#000" stroke-width="5" d="m28 1 16.043 32.815s.75 10.848-18.228 10.417c-4.731-.107-4.624.436-6.246-.08" transform="matrix(1 0 -.07193 1 2.942 .274)"/>
</g>
<g transform="scale(0.8540000000000001 1) translate(34.19203747072597 0)">
<defs><linearGradient id="a" x1="200" x2="200" y1="100" y2="310" gradientUnits="userSpaceOnUse"><stop offset="0" stop-color="rgba(0,0,0,.25)"/><stop offset="1" stop-color="rgba(0,0,0,0)"/></linearGradient></defs><g style="display:inline"><path d="M60 310H50v-10c0-140 50-200 150-200s150 60 150 200v10h-10v-20c0-5-10-20-15-25s-5-55-15-65c-40-40-56.429-38.095-106.429-38.095S130 160 90 200c-10 10-10 60-15 65s-15 20-15 25z" style="display:inline;opacity:1;fill:url(#a);stroke:none;stroke-width:1;stroke-miterlimit:4;stroke-dasharray:none"/></g><path fill="#1c1008" stroke="#000" stroke-width="4.001" d="M186.574 63.308c-1.38.914-3.048 2.224-3.706 2.902-.658.697-2.644 2.11-4.428 3.137-1.795 1.036-4.004 2.996-4.928 4.352-.913 1.347-2.761 3.024-4.12 3.74-1.36.716-4.378 3.134-6.98 4.84-2.633 1.695-3.698 3.69-4.77 5.047-1.083 1.338-1.985 2.085-3.313 2.952-1.316.848-2.349 2.437-2.349 2.437-.547.603-3.464.794-5.216 1.906s-2.509 3.225-3.475 3.668c-.956.443-2.931 1.762-4.408 2.92-1.476 1.15-2.994 2.139-3.366 2.205-.361.066-1.827 1.074-3.25 2.232-1.423 1.14-2.75 2.101-2.93 2.13-.192.028-2.04 1.271-4.121 2.74 1.206.294-4.29 2.363-5.437 3.465-1.147 1.093-3.027 2.11-3.61 3.166-1.02 1.79-2.04 1.624-5.566 1.972-3.165.358-2.247 2.16-4.87 3.988-2.103 1.46-3.654 2.458-4.302 3.89-.52 1.159-2.102 4.032-3.515 6.378-2.188 3.664-1.961 5.05-8.206 10.202-3.94 3.231-2.727 4.186-4.691 5.76-2.56 2.043-3.919 3.617-4.832 5.586-.69 1.507-1.53 5.237-2.4 7.385s-1.688 4.296-1.837 4.786c-.138.49-1.71 2.091-3.473 3.56-2.57 2.186-3.207 3.072-3.59 4.975-.244 1.272-.456 2.694-.477 3.165-.01.462-.212 2.012-1.327 3.077-13.917 26.93.055 20.434 20.174 19.793 6.615-2.296 23.167-11.049 33.226-13.355 24.884-5.704 49.903-4.276 77.7-4.133 25.588.131 50.833-.518 75.14 4.693 13.99 2.998 30.483 11.738 39.346 13.955 20.81.15 27.744 1.091 26.427-2.908-.116-1.442-1.2-5.16-1.805-7.91-.606-2.678-1.04-2.932-2.061-6.347-.209-.699-1.487-1.979-2.57-2.95-1.104-.97-2.028-2.175-2.06-2.665-.021-.49-.266-1.978-.542-3.307-.425-2.072-1.476-2.677-4.577-5.108-2.05-1.582-.9-5.269-1.007-5.768-.116-.518-.743-1.554-1.423-2.317s-1.773-2.798-2.474-4.522c-.828-2.11-2.028-3.825-3.558-5.087-1.295-1.093-2.793-3.062-3.44-4.541-.616-1.45-.945-3.772-1.964-4.61s.385-.414-.794-.876c-1.179-.48-2.548-1.61-3.069-2.524-.51-.924-1.975-2.421-3.25-3.335l-1.23-2.44c-.562-.518-1.529-1.93-2.155-3.137-.616-1.215-2.889-3.759-5.034-5.68-2.156-1.941-2.69-5.195-4.846-7.353-2.156-2.185-4.567-4.239-5.342-4.53-.796-.293-3.037-2.215-5.002-4.316-2.368-2.58-1.744-4.223-4.899-5.966-2.559-1.432-5.84-3.015-7.295-3.495-1.466-.48-3.122-1.97-4.587-2.593-1.466-.612-3.696-1.906-4.78-3.253-1.072-1.357-2.888-2.2-3.303-2.228-.424-.028-1.943-1.912-3.377-4.22-1.423-2.327-3.387-4.918-4.386-5.728-.998-.82-3.525-1.535-5.67-1.592-3.824-.066-3.93-.132-7.084-4.889-2.517-3.957-3.462-4.89-4.906-4.72-1.423.17-2.273-.669-4.301-4.333-2.04-3.834-2.804-4.616-4.599-4.616-1.486.019-2.59.866-3.578 2.703-1.434 2.591-1.455 2.6-2.21.443-.424-1.196-2.102-3.269-3.738-4.578l-3.526-2.067c-3.753 1.148-3.364 2.987-4.97 4.494-4.587-3.458-5.267-3.162-7.667-2.23-1.678.641-3.918.886-4.991.528-1.306-.405-2.772-.066-4.45 1.055z"/>
</g>
</svg>