<svg xmlns="http://www.w3.org/2000/svg" version="1.2" baseProfile="tiny" width="100%" height="100%" viewBox="0 0 400 600" preserveAspectRatio="xMinYMin meet">
<g transform="scale(1 1) translate(0 0)">
<path fill="#ad6453" stroke="#000" stroke-width="6" d="M10 600s-10-65 50-65c5 0 25-15 70-35l70-200 70 200c45 20 65 35 70 35 60 0 50 65 50 65"/>
</g>
<g transform="scale(1 1) translate(0 0)">
<path fill="#F00BA1" stroke="#000" stroke-width="6" d="M80 610s10-30 10-90l20-10s10 80 90 80 90-80 90-80l20 10c0 60 10 90 10 90z"/><path fill="#F00BA2" d="M85 575v25h230v-25h-65s-20 15-50 15-50-15-50-15z"/><path fill="none" stroke="#000" stroke-width="16" d="M90 520c0 60-10 90-10 90m230-90c0 60 10 90 10 90M110 510s10 80 90 80 90-80 90-80"/><path fill="none" stroke="#F00BA1" stroke-width="12" d="M90 520c0 60-10 90-10 90m230-90c0 60 10 90 10 90M110 510s10 80 90 80 90-80 90-80"/><path fill="none" stroke="#F00BA3" stroke-width="6" d="M90 520c0 60-10 90-10 90m230-90c0 60 10 90 10 90M110 510s10 80 90 80 90-80 90-80"/>
</g>
<g transform="translate(32 293.3) scale(0.6 0.6) translate(15.333333333333336 21.133333333333336) translate(17.459999999999997 -3)">
<path fill="#ad6453" stroke="#000" stroke-width="6" d="M43 8S3-12 3 28c0 45 40 30 40 30z"/>
</g>
<g transform="translate(322 293.3) scale(-0.6 0.6) translate(-61.33333333333334 21.133333333333336) translate(17.459999999999997 -3)">
<path fill="#ad6453" stroke="#000" stroke-width="6" d="M43 8S3-12 3 28c0 45 40 30 40 30z"/>
</g>
<g transform="scale(0.8680000000000001 1) translate(30.414746543778772 0)">
<path fill="#ad6453" stroke="#000" stroke-width="6" d="M200 100c100 0 150 60 150 200 0 160-80 170-100 190-10 10-30 20-50 10-20 10.9-40 0-50-10-20-20-100-30-100-190 0-140 50-200 150-200Z"/><path fill="rgba(0,0,0,0)" d="M60 300H50c0-140 50-200 150-200s150 60 150 200h-10v-10c0-5-10-20-15-25s-5-55-15-65c-40-40-60 0-110 0s-70-40-110 0c-10 10-10 60-15 65s-15 20-15 25z"/><path fill="rgba(0,0,0,0)" d="M200 410c30 0 50 10 50 10 30 0 90-15 90-120h10c0 160-80 170-100 190-10 10-30 20-50 10-20 10-40 0-50-10-20-20-100-30-100-190h10c0 105 60 120 90 120 0 0 20-10 50-10"/>
</g>
<g>
<path fill="none" stroke="#000" stroke-width="2" d="M240 355s20-10 45 0m-125 0s-20-10-45 0"/>
</g>
<g transform="translate(144.4807306749833 416) scale(0.75 0.75) translate(1.839756441672236 6.333333333333333)">
<path fill="none" stroke="#000" stroke-width="2" d="M9 2s-12.5 8.95-4 34"/>
</g>
<g transform="translate(244.4807306749833 416) scale(-0.75 0.75) translate(-12.878295091705652 6.333333333333333)">
<path fill="none" stroke="#000" stroke-width="2" d="M9 2s-12.5 8.95-4 34"/>
</g>
<g transform="translate(102.24084342899988 286.1384650016032) rotate(5 37.759156571000126 23.861534998396785)">
<path d="M5 20s12.08-8.23 35-8.23S70 30 70 30s-7.15 9.92-30.07 9.92S5 20 5 20" style="fill:#f5f3ee"/><path d="M5 20c-2.87-2.87 12.2-9.55 35-11.9C70 5 72.87 27.13 70 30s-7.08-13.73-30-13.73S7.87 22.87 5 20"/><path d="M39.93 33.04c-6.34 0-11.46-5.12-11.46-11.46 0-6.33 5.12-11.46 11.46-11.46s11.46 5.13 11.46 11.46c0 6.34-5.12 11.46-11.46 11.46"/>
</g>
<g transform="translate(222.24084342899988 286.1384650016032) rotate(-5 37.759156571000126 23.861534998396785) scale(-1 1) translate(-75.51831314200025 0)">
<path d="M5 20s12.08-8.23 35-8.23S70 30 70 30s-7.15 9.92-30.07 9.92S5 20 5 20" style="fill:#f5f3ee"/><path d="M5 20c-2.87-2.87 12.2-9.55 35-11.9C70 5 72.87 27.13 70 30s-7.08-13.73-30-13.73S7.87 22.87 5 20"/><path d="M39.93 33.04c-6.34 0-11.46-5.12-11.46-11.46 0-6.33 5.12-11.46 11.46-11.46s11.46 5.13 11.46 11.46c0 6.34-5.12 11.46-11.46 11.46"/>
</g>
<g transform="translate(101.2030185317928 258.55217041664764) rotate(-6 38.796981468207214 11.447829583352352)">
<path fill="#272421" stroke="#000" d="M72.888 12.598c5.271-4.016 2.566-8.267 2.566-8.267-1.018-.86-27.007.663-35.814.759-9.087.098-35.151 9.7-38.194 12.84-.01 2.629 27.698-1.318 40.149-1.733 9.802-.326 26.406.125 31.293-3.6z"/>
</g>
<g transform="translate(221.2030185317928 258.55217041664764) rotate(6 38.796981468207214 11.447829583352352) scale(-1 1) translate(-77.59396293641443 0)">
<path fill="#272421" stroke="#000" d="M72.888 12.598c5.271-4.016 2.566-8.267 2.566-8.267-1.018-.86-27.007.663-35.814.759-9.087.098-35.151 9.7-38.194 12.84-.01 2.629 27.698-1.318 40.149-1.733 9.802-.326 26.406.125 31.293-3.6z"/>
</g>
<g transform="translate(0 51.52119068455602) scale(-1 1) translate(-400 0)">
<path d="M168 384s9-13.77 32-14.03c17.4-.2 32 13.2 32 13.2s-4.29 23.24-32 23.81c-27.29.56-32-22.98-32-22.98" style="opacity:.05;mix-blend-mode:multiply;fill:#501414"/><path d="M181.71 402.12c14.52 5.66 24.72 5.71 37.72-.71m.86-26.53c-14.52-5.66-27.29-6.34-40.29.09" style="fill:none;stroke:#000;stroke-width:2"/><path d="M165 390s20-5 35-5 35 4 35 4" style="fill:none;stroke:#000;stroke-width:4"/>
</g>
<g transform="translate(140.995 319.5) scale(-0.7 0.7) translate(-143.29785714285714 21.642857142857146)">
<path fill="#ad6453" stroke="#000" stroke-width="5" d="M58 18S43 28.72 38 33c-4.17 3.57-10 10-10 30 0 10 15 20 25 20s20-5 20-15"/><path d="m84.99 55.01 5-.02.02 5-5 .02z" style="fill:none"/>
</g>
<g transform="scale(-1 1) translate(-400 0) scale(0.8680000000000001 1) translate(30.414746543778772 0)">
<path fill="#272421" stroke="#000" stroke-width="4" d="M60 310H50v-10c0-133.375 45.38-194.143 136.14-199.595Q192.902 100 200 100c100 0 150 60 150 200v10h-10c-5.865-19.535-9.397-26.984-15-45-2.917-4.702-25.536-47.024-35.536-57.024s-53.452 7.5-84.107 19.107c-10.733 4.064-108.964 32.475-119.957 32.19 0 0-7.086 5.755-10.4 5.727-5 5-15 20-15 25z"/>
</g>
</svg>