<svg xmlns="http://www.w3.org/2000/svg" version="1.2" baseProfile="tiny" width="100%" height="100%" viewBox="0 0 400 600" preserveAspectRatio="xMinYMin meet">
<g transform="scale(1 1) translate(0 0)">
<path fill="#aa816f" stroke="#000" stroke-width="6" d="M10 600s-10-65 50-65c5 0 25-15 70-35l70-200 70 200c45 20 65 35 70 35 60 0 50 65 50 65"/>
</g>
<g transform="scale(1 1) translate(0 0)">
<path fill="#3a4048" stroke="#000" stroke-width="6" d="M80 610s10-30 10-90l20-10s10 80 90 80 90-80 90-80l20 10c0 60 10 90 10 90z"/><path fill="#8a93a0" d="M85 575v25h230v-25h-65s-20 15-50 15-50-15-50-15z"/><path fill="none" stroke="#000" stroke-width="16" d="M90 520c0 60-10 90-10 90m230-90c0 60 10 90 10 90M110 510s10 80 90 80 90-80 90-80"/><path fill="none" stroke="#3a4048" stroke-width="12" d="M90 520c0 60-10 90-10 90m230-90c0 60 10 90 10 90M110 510s10 80 90 80 90-80 90-80"/><path fill="none" stroke="#e8ecf1" stroke-width="6" d="M90 520c0 60-10 90-10 90m230-90c0 60 10 90 10 90M110 510s10 80 90 80 90-80 90-80"/>
</g>
<g transform="translate(32 290.6) scale(1.34 1.34) translate(-5.83582089552239 -8.728358208955227) translate(12.5 -3)">
<path fill="#aa816f" stroke="#000" stroke-width="6" d="M43 13S23 3 13 3 3 23 3 33s3 20 13 30 27-10 27-10z"/>
</g>
<g transform="translate(322 290.6) scale(-1.34 1.34) translate(-40.164179104477604 -8.728358208955227) translate(12.5 -3)">
<path fill="#aa816f" stroke="#000" stroke-width="6" d="M43 13S23 3 13 3 3 23 3 33s3 20 13 30 27-10 27-10z"/>
</g>
<g transform="scale(0.9 1) translate(22.222222222222218 0)">
<path fill="#aa816f" stroke="#000" stroke-width="6" d="M200 100c100 0 150 60 150 200 0 120-10 150-110 190 0 0-20 10-40 10s-40-10-40-10C60 450 50 420 50 300c0-140 50-200 150-200Z"/><path fill="rgba(0,0,0,0)" d="M60 300H50c0-140 50-200 150-200s150 60 150 200h-10v-10c0-5-10-20-15-25s-5-55-15-65c-40-40-60 0-110 0s-70-40-110 0c-10 10-10 60-15 65s-15 20-15 25z"/><path fill="rgba(0,0,0,0)" d="M200 410c30 0 50 10 50 10 30 0 90-15 90-120h10c0 120-10 150-110 190 0 0-20 10-40 10s-40-10-40-10C60 450 50 420 50 300h10c0 105 60 120 90 120 0 0 20-10 50-10"/>
</g>
<g>
<path fill="none" stroke="#000" stroke-width="2" d="M220 270s-10 0-10-20m-30 20s10 0 10-20"/>
</g>
<g transform="translate(147 424.5) scale(1.2 1.2) translate(-0.4999999999999999 -1.7499999999999998)">
<path fill="none" stroke="#000" stroke-width="2" d="m0 20 6-10-6-9"/>
</g>
<g transform="translate(247 424.5) scale(-1.2 1.2) translate(-5.500000000000001 -1.7499999999999998)">
<path fill="none" stroke="#000" stroke-width="2" d="m0 20 6-10-6-9"/>
</g>
<g transform="translate(102.24084342899988 286.1384650016032) rotate(8 37.759156571000126 23.861534998396785)">
<path d="M5 20s12.08-8.23 35-8.23S70 30 70 30s-7.15 9.92-30.07 9.92S5 20 5 20" style="fill:#f5f3ee"/><path d="M5 20c-2.87-2.87 12.2-9.55 35-11.9C70 5 72.87 27.13 70 30s-7.08-13.73-30-13.73S7.87 22.87 5 20"/><path d="M39.93 33.04c-6.34 0-11.46-5.12-11.46-11.46 0-6.33 5.12-11.46 11.46-11.46s11.46 5.13 11.46 11.46c0 6.34-5.12 11.46-11.46 11.46"/>
</g>
<g transform="translate(222.24084342899988 286.1384650016032) rotate(-8 37.759156571000126 23.861534998396785) scale(-1 1) translate(-75.51831314200025 0)">
<path d="M5 20s12.08-8.23 35-8.23S70 30 70 30s-7.15 9.92-30.07 9.92S5 20 5 20" style="fill:#f5f3ee"/><path d="M5 20c-2.87-2.87 12.2-9.55 35-11.9C70 5 72.87 27.13 70 30s-7.08-13.73-30-13.73S7.87 22.87 5 20"/><path d="M39.93 33.04c-6.34 0-11.46-5.12-11.46-11.46 0-6.33 5.12-11.46 11.46-11.46s11.46 5.13 11.46 11.46c0 6.34-5.12 11.46-11.46 11.46"/>
</g>
<g transform="translate(101.88888888888889 258.62629757785464) rotate(3 38.111111111111114 11.373702422145328)">
<path fill="#272421" stroke="#000" d="M71 21c8-8 0-12 0-12S43 5 35 5C25 5 7 1 7 1S-5 5 7 17c16 4 8 0 28 0 32 0 33 7 36 4Z"/>
</g>
<g transform="translate(221.88888888888889 258.62629757785464) rotate(-3 38.111111111111114 11.373702422145328) scale(-1 1) translate(-76.22222222222223 0)">
<path fill="#272421" stroke="#000" d="M71 21c8-8 0-12 0-12S43 5 35 5C25 5 7 1 7 1S-5 5 7 17c16 4 8 0 28 0 32 0 33 7 36 4Z"/>
</g>
<g transform="translate(0 0)">
<path d="M170 430s10 20 30 20 30-20 30-20z" style="fill:#fff;stroke:#000;stroke-width:5"/>
</g>
<g transform="translate(140.995 319.5) scale(-1.13 1.13) translate(-111.22181415929204 -5.809734513274332)">
<path fill="#aa816f" stroke="#000" stroke-width="5" d="M58 18S43 28.72 38 33c-4.17 3.57-10 10-10 30 0 10 15 20 25 20s20-5 20-15"/><path d="m84.99 55.01 5-.02.02 5-5 .02z" style="fill:none"/>
</g>
<g transform="scale(-1 1) translate(-400 0) scale(0.9 1) translate(22.222222222222218 0)">
<defs><linearGradient id="a" x1="200" x2="200" y1="100" y2="310" gradientUnits="userSpaceOnUse"><stop offset="0" stop-color="rgba(0,0,0,.3)"/><stop offset="1" stop-color="rgba(0,0,0,0)"/></linearGradient></defs><path d="M60 310H50v-10c0-140 50-200 150-200s150 60 150 200v10h-10v-20c0-5-10-20-15-25s-5-45-15-55-60 0-110 0-100-10-110 0-10 50-15 55-15 20-15 25z" style="fill:url(#a);stroke:none"/><path fill="#272421" stroke="#000" stroke-width="4" d="M195 200h-10V100h10zm10 0h10V100h-10v100m20 0h10V100h-10v100m20 0h10v-95h-10zm20-5h10v-85h-10zm20 0h10v-75h-10zm20-5h10v-50h-10zm20 5h10v-20h-10v20m-150 5h-10V100h10zm-20 0h-10v-95.13h10zm-20-5v-85.15h-10V195zm-20 0v-75h-10v75zm-20-5H85v-50h10zm-20 5H65v-20h10z"/>
</g>
</svg>