<svg xmlns="http://www.w3.org/2000/svg" version="1.2" baseProfile="tiny" width="100%" height="100%" viewBox="0 0 400 600" preserveAspectRatio="xMinYMin meet">
<g transform="scale(1.01 1) translate(-1.9801980198019815 0)">
<path fill="#74453d" stroke="#000" stroke-width="6" d="M5 600s-5-60 35-70c0 0 40 0 90-30l70-200 70 200c50 30 90 30 90 30 40 10 35 70 35 70"/>
</g>
<g transform="scale(1.01 1) translate(-1.980198019801982 0)">
<path fill="#3a4048" stroke="#000" stroke-width="6" d="M80 610s10-30 10-90l20-10s10 80 90 80 90-80 90-80l20 10c0 60 10 90 10 90z"/><path fill="#8a93a0" d="M85 575v25h230v-25h-65s-20 15-50 15-50-15-50-15z"/><path fill="none" stroke="#000" stroke-width="16" d="M90 520c0 60-10 90-10 90m230-90c0 60 10 90 10 90M110 510s10 80 90 80 90-80 90-80"/><path fill="none" stroke="#3a4048" stroke-width="12" d="M90 520c0 60-10 90-10 90m230-90c0 60 10 90 10 90M110 510s10 80 90 80 90-80 90-80"/><path fill="none" stroke="#e8ecf1" stroke-width="6" d="M90 520c0 60-10 90-10 90m230-90c0 60 10 90 10 90M110 510s10 80 90 80 90-80 90-80"/>
</g>
<g transform="translate(32 293.3) scale(0.6 0.6) translate(15.333333333333336 21.133333333333336) translate(-2.3799999999999994 -3)">
<path fill="#74453d" stroke="#000" stroke-width="6" d="M43 8S3-12 3 28c0 45 40 30 40 30z"/>
</g>
<g transform="translate(322 293.3) scale(-0.6 0.6) translate(-61.33333333333334 21.133333333333336) translate(-2.3799999999999994 -3)">
<path fill="#74453d" stroke="#000" stroke-width="6" d="M43 8S3-12 3 28c0 45 40 30 40 30z"/>
</g>
<g transform="scale(0.996 1) translate(0.8032128514056232 0)">
<path fill="#74453d" stroke="#000" stroke-width="6" d="M200 100c100 0 150 60 150 200 0 150-80 160-110 190-10 10-20 10-40 10s-30 0-40-10c-30-30-110-40-110-190 0-140 50-200 150-200Z"/><path fill="rgba(0,0,0,0)" d="M60 300H50c0-140 50-200 150-200s150 60 150 200h-10v-10c0-5-10-20-15-25s-5-55-15-65c-40-40-60 0-110 0s-70-40-110 0c-10 10-10 60-15 65s-15 20-15 25z"/><path fill="rgba(0,0,0,0)" d="M200 410c30 0 50 10 50 10 30 0 90-15 90-120h10c0 150-80 160-110 190-10 10-20 10-40 10s-29.88-.12-40-10c-30-29.31-110-40-110-190h10c0 105 60 120 90 120 0 0 20-10 50-10"/>
</g>
<g transform="translate(147 424.5) scale(1.78 1.78) translate(-1.3146067415730336 -4.601123595505618)">
<path fill="none" stroke="#000" stroke-width="2" d="m0 20 6-10-6-9"/>
</g>
<g transform="translate(247 424.5) scale(-1.78 1.78) translate(-4.685393258426966 -4.601123595505618)">
<path fill="none" stroke="#000" stroke-width="2" d="m0 20 6-10-6-9"/>
</g>
<g transform="translate(-120.05628769726621 -25.250646588503912) rotate(2 260.0562876972662 335.2506465885039)">
<path d="M259.01 349.54c-13.866-.398-24.58-15.35-24.58-28.312 14.975.007 34.492.1 51.25-.275.204 12.79-11.737 29.015-26.67 28.587" style="fill:#fff;stroke:#000;stroke-linecap:round;stroke-linejoin:round;stroke-width:5"/><path d="M259.552 325.177c-10 0-10 15 0 15s10-15 0-15" style="fill:#000;stroke:#000;stroke-linecap:round;stroke-linejoin:round;stroke-width:4"/>
</g>
<g transform="translate(-0.056287697266213854 -25.250646588503912) rotate(-2 260.0562876972662 335.2506465885039) scale(-1 1) translate(-520.1125753945324 0)">
<path d="M259.01 349.54c-13.866-.398-24.58-15.35-24.58-28.312 14.975.007 34.492.1 51.25-.275.204 12.79-11.737 29.015-26.67 28.587" style="fill:#fff;stroke:#000;stroke-linecap:round;stroke-linejoin:round;stroke-width:5"/><path d="M259.552 325.177c-10 0-10 15 0 15s10-15 0-15" style="fill:#000;stroke:#000;stroke-linecap:round;stroke-linejoin:round;stroke-width:4"/>
</g>
<g transform="translate(97 257.6503955087335) rotate(-13 43 12.349604491266511)">
<path fill="#272421" stroke="#000" d="M83 13C83 3 73 3 73 3 48-2 17.46 8.36 3 18c40-5 50 5 75 5 0 0 5 0 5-10Z"/>
</g>
<g transform="translate(217 257.6503955087335) rotate(13 43 12.349604491266511) scale(-1 1) translate(-86 0)">
<path fill="#272421" stroke="#000" d="M83 13C83 3 73 3 73 3 48-2 17.46 8.36 3 18c40-5 50 5 75 5 0 0 5 0 5-10Z"/>
</g>
<g transform="translate(155 427)">
<path d="M5 3s13.33 20 40 20S85 3 85 3 65 5.22 45 5.22 5 3 5 3Z" style="fill:#fff;stroke:#000;stroke-width:5"/>
</g>
<g transform="translate(179 344) scale(-0.55 0.55) translate(-31 21.27272727272727)">
<path fill="#74453d" stroke="#000" stroke-width="5" d="M11 1S6 31 21 41L1 51"/>
</g>
<g transform="scale(-1 1) translate(-400 0) scale(0.996 1) translate(0.8032128514056232 0)">
<path fill="#272421" stroke="#000" stroke-width="4" d="M60 310H50v-10c0-140 50-200 150-200s150 60 150 200v10h-10v-20c0-5-10-20-15-25s-5-55-15-65c-40-40-60 0-110 0s-70-40-110 0c-10 10-10 60-15 65s-15 20-15 25z"/>
</g>
</svg>