<svg xmlns="http://www.w3.org/2000/svg" version="1.2" baseProfile="tiny" width="100%" height="100%" viewBox="0 0 400 600" preserveAspectRatio="xMinYMin meet">
<g transform="scale(1.02 1) translate(-3.921568627450984 0)">
<path fill="#bb876f" stroke="#000" stroke-width="6" d="M10 600s-10-65 50-65c5 0 25-15 70-35l70-200 70 200c45 20 65 35 70 35 60 0 50 65 50 65"/>
</g>
<g transform="scale(1.02 1) translate(-3.921568627450984 0)">
<path fill="#1E4230" stroke="#000" stroke-width="6" d="M80 610s10-30 10-90l20-10s10 80 90 80 90-80 90-80l20 10c0 60 10 90 10 90z"/><path fill="#E8B321" d="M85 575v25h230v-25h-65s-20 15-50 15-50-15-50-15z"/><path fill="none" stroke="#000" stroke-width="16" d="M90 520c0 60-10 90-10 90m230-90c0 60 10 90 10 90M110 510s10 80 90 80 90-80 90-80"/><path fill="none" stroke="#1E4230" stroke-width="12" d="M90 520c0 60-10 90-10 90m230-90c0 60 10 90 10 90M110 510s10 80 90 80 90-80 90-80"/><path fill="none" stroke="#FFFFFF" stroke-width="6" d="M90 520c0 60-10 90-10 90m230-90c0 60 10 90 10 90M110 510s10 80 90 80 90-80 90-80"/>
</g>
<g transform="translate(32 293.3) scale(1.3 1.3) translate(-5.307692307692308 -7.315384615384616) translate(15.599999999999998 -3)">
<path fill="#bb876f" stroke="#000" stroke-width="6" d="M43 8S3-12 3 28c0 45 40 30 40 30z"/>
</g>
<g transform="translate(322 293.3) scale(-1.3 1.3) translate(-40.692307692307686 -7.315384615384616) translate(15.599999999999998 -3)">
<path fill="#bb876f" stroke="#000" stroke-width="6" d="M43 8S3-12 3 28c0 45 40 30 40 30z"/>
</g>
<g transform="scale(0.8800000000000001 1) translate(27.272727272727245 0)">
<path fill="#bb876f" stroke="#000" stroke-width="6" d="M200 100c100 0 150 60 150 200 0 20-20 120-25 130-4.47 8.94-105 70-105 70h-40s-98.29-56.58-105-70c-5-10-25-110-25-130 0-140 50-200 150-200Z"/><path fill="rgba(0,0,0,0.12)" d="M200 410c30 0 50 10 50 10 30 0 90-15 90-120h10c0 20-20 120-25 130-4.47 8.94-105 70-105 70h-40s-98.29-56.58-105-70c-5-10-25-110-25-130h10c0 105 60 120 90 120 0 0 20-10 50-10"/><path fill="rgba(0,0,0,0.12)" d="M60 300H50c0-140 50-200 150-200s150 60 150 200h-10v-10c0-5-10-20-15-25s-5-55-15-65c-40-40-60 0-110 0s-70-40-110 0c-10 10-10 60-15 65s-15 20-15 25z"/>
</g>
<g>
<path fill="none" stroke="#000" stroke-width="2" d="M240 355s20-10 45 0m-125 0s-20-10-45 0"/>
</g>
<g transform="scale(0.8800000000000001 1) translate(27.34090909090906 0)">
<path fill="#1c1008" fill-rule="evenodd" stroke="#000" d="M60 300H50s-10 70 10 130c10 20 30 55 90 55 10-10 0-45-10-55s-30 0-60-30c-20-20-20-70-20-100Zm261 100c-30 30-50 20-60 30s-20 45-10 55c60 0 80-35 90-55 20-60 10-130 10-130h-10c0 30 0 80-20 100Z"/><path fill="#1c1008" fill-rule="evenodd" stroke="#000" d="M200 405c55 0 65 20 65 35s1.12 46.94-15 55c-10 5-20 5-30 25v30l-5 10-5-10-5 15s-4.86-9.65-5-9.99c-.02.34-5 9.99-5 9.99s-5-15.32-5-15-5 10-5 10l-5-10v-30c-10-20-20-20-30-25-16.12-8.06-15-40-15-55s10-35 65-35Zm0 150.01V555zM150 440c5 20 10 30 30 30 10 0 10-15 20-15s10 15 20 15c20 0 25-10 30-30 4.85-19.4-20-20-50-20s-54.85.6-50 20Z"/><path fill="#1E4230" stroke="#000" d="M180 520h40v20h-40z"/>
</g>
<g transform="translate(101 299.4999966529182) rotate(-6 39 10.500003347081822)">
<path d="M74 18 69 3H4l5 15z" style="fill:#fff;stroke:#000;stroke-width:5"/><path d="M38.5 18a7.49 7.49 0 0 1-7.5-7.5C31 6.35 34.35 3 38.5 3S46 6.35 46 10.5 42.65 18 38.5 18Z" style="fill:#000;stroke:#000;stroke-width:5"/>
</g>
<g transform="translate(221 299.4999966529182) rotate(6 39 10.500003347081822) scale(-1 1) translate(-78 0)">
<path d="M74 18 69 3H4l5 15z" style="fill:#fff;stroke:#000;stroke-width:5"/><path d="M38.5 18a7.49 7.49 0 0 1-7.5-7.5C31 6.35 34.35 3 38.5 3S46 6.35 46 10.5 42.65 18 38.5 18Z" style="fill:#000;stroke:#000;stroke-width:5"/>
</g>
<g transform="translate(101.88888888888889 258.62629757785464) rotate(-13 38.111111111111114 11.373702422145328)">
<path fill="#1c1008" stroke="#000" d="M71 21c8-8 0-12 0-12S43 5 35 5C25 5 7 1 7 1S-5 5 7 17c16 4 8 0 28 0 32 0 33 7 36 4Z"/>
</g>
<g transform="translate(221.88888888888889 258.62629757785464) rotate(13 38.111111111111114 11.373702422145328) scale(-1 1) translate(-76.22222222222223 0)">
<path fill="#1c1008" stroke="#000" d="M71 21c8-8 0-12 0-12S43 5 35 5C25 5 7 1 7 1S-5 5 7 17c16 4 8 0 28 0 32 0 33 7 36 4Z"/>
</g>
<g transform="translate(168 428.3888888888889) scale(-1 1) translate(-64 0)">
<path d="M32 3c10 0 15 0 25 5 5 5 5 5 0 10s-15 0-25 0-20 5-25 0-5-5 0-10c10-5 15-5 25-5Z" style="fill:#fff;stroke:#000;stroke-width:5"/>
</g>
<g transform="translate(160 318.75) scale(0.7 0.7) translate(21.90476190476191 21.96428571428572)">
<path fill="#bb876f" stroke="#000" stroke-width="5" d="M40 40s50-30 0 30"/>
</g>
<g transform="scale(-1 1) translate(-400 0) scale(0.8800000000000001 1) translate(27.272727272727245 0)">
<path fill="#1c1008" stroke="#000" stroke-width="4" d="M53.25 329.3S50 313.5 50 300c0-140 50-200 150-200s150 60 150 200c0 12-5.25 40.3-5.25 40.3-5-18.5-11.5-52-11.5-52S330 270 325 265s-5-55-15-65c-40-40-60 0-110 0s-70-40-110 0c-10 10-10 60-15 65s-10.25 19.3-10.25 19.3-7 30.5-11.5 45Z"/><path fill="#1c1008" d="M76 199s-8.25 40.3 12 66c5.75-23.7 16-47 16-47s-2.25 22.3 3 37c13.25-14.7 31-67 31-67s-4 42.59-.25 58.3C143.5 230.59 148 219 148 219s2.25 22.8 6.25 38.3C166.75 240.8 179 180 179 180s-8.25 57.3-1.25 70.8c9-12.5 10.25-38.8 10.25-38.8s12 23.3 15.75 44.8c12-13 16.25-62.8 16.25-62.8s10.3 42.72 21 50c5.3-5.88 0-59 0-59s22.17 58.53 36 67c3.5-12.14-1-35-1-35s12.17 28.86 23.5 38.2c1.67-9.67-7.67-47.34-7.67-47.34s24.67 44.34 28.15 61.25c8.85-20.91 3.19-74.25 3.19-74.25L271 157l-136-3z"/><path fill="none" stroke="#000" stroke-width="4" d="M76 199s-8.25 40.3 12 66c5.75-23.7 16-47 16-47s-2.25 22.3 3 37c13.25-14.7 31-67 31-67s-4 42.59-.25 58.3C143.5 230.59 148 219 148 219s2.25 22.8 6.25 38.3C166.75 240.8 179 180 179 180s-8.25 57.3-1.25 70.8c9-12.5 13.5-40.5 13.5-40.5s8.75 25 12.5 46.5c12-13 16.25-62.8 16.25-62.8s10.3 42.72 21 50c5.3-5.88 0-59 0-59s22.17 58.53 36 67c3.5-12.14-1-35-1-35s12.17 28.86 23.5 38.2c1.67-9.67-7.67-47.34-7.67-47.34s24.67 44.34 28.15 61.25c8.85-20.91 3.19-74.25 3.19-74.25"/>
</g>
</svg>