<svg xmlns="http://www.w3.org/2000/svg" version="1.2" baseProfile="tiny" width="100%" height="100%" viewBox="0 0 400 600" preserveAspectRatio="xMinYMin meet">
<g transform="scale(0.97 1) translate(6.185567010309284 0)">
<path fill="#ddb7a0" stroke="#000" stroke-width="6" d="M10 600s-10-70 50-70c10 0 0-10 60-20 0 0 50-210 80-210s80 210 80 210c60 10 50 20 60 20 60 0 50 70 50 70"/><path d="M71 545s46.9-3 82.1 10M329 545s-46.9-3-82.1 10m77.1-18s5.5-7.5 22-7m-271 7s-5.5-7.5-22-7"/>
</g>
<g transform="scale(0.97 1) translate(6.185567010309284 0)">
<path fill="#2C5545" stroke="#000" stroke-width="6" d="M80 610s10-30 10-90l20-10s10 80 90 80 90-80 90-80l20 10c0 60 10 90 10 90z"/><path fill="#EAE4C8" d="M85 575v25h230v-25h-65s-20 15-50 15-50-15-50-15z"/><path fill="none" stroke="#000" stroke-width="16" d="M90 520c0 60-10 90-10 90m230-90c0 60 10 90 10 90M110 510s10 80 90 80 90-80 90-80"/><path fill="none" stroke="#2C5545" stroke-width="12" d="M90 520c0 60-10 90-10 90m230-90c0 60 10 90 10 90M110 510s10 80 90 80 90-80 90-80"/><path fill="none" stroke="#FFFFFF" stroke-width="6" d="M90 520c0 60-10 90-10 90m230-90c0 60 10 90 10 90M110 510s10 80 90 80 90-80 90-80"/>
</g>
<g transform="translate(32 290.6) scale(0.54 0.54) translate(19.592592592592588 29.303703703703704) translate(6.300000000000001 -3)">
<path fill="#ddb7a0" stroke="#000" stroke-width="6" d="M43 13S23 3 13 3 3 23 3 33s3 20 13 30 27-10 27-10z"/>
</g>
<g transform="translate(322 290.6) scale(-0.54 0.54) translate(-65.5925925925926 29.303703703703704) translate(6.300000000000001 -3)">
<path fill="#ddb7a0" stroke="#000" stroke-width="6" d="M43 13S23 3 13 3 3 23 3 33s3 20 13 30 27-10 27-10z"/>
</g>
<g transform="scale(0.9400000000000001 1) translate(12.765957446808498 0)">
<path fill="#ddb7a0" stroke="#000" stroke-width="6" d="M200 100c100 0 150 60 150 200 0 70-30 150-40 160s-60 40-110 40-100-30-110-40-40-90-40-160c0-140 50-200 150-200Z"/><path fill="rgba(0,0,0,0)" d="M200 410c30 0 50 10 50 10 30 0 90-15 90-120h10c0 70-30 150-40 160s-60 40-110 40-100-30-110-40-40-90-40-160h10c0 105 60 120 90 120 0 0 20-10 50-10"/><path fill="rgba(0,0,0,0)" d="M60 300H50c0-140 50-200 150-200s150 60 150 200h-10v-10c0-5-10-20-15-25s-5-55-15-65c-40-40-60 0-110 0s-70-40-110 0c-10 10-10 60-15 65s-15 20-15 25z"/>
</g>
<g transform="scale(0.9400000000000001 1) translate(12.765957446808498 0)">
<path fill="#B55239" stroke="#000" d="M188 454c2-4 22-4 24 0 4.12 8.25-12 21-12 21s-16.12-12.75-12-21Zm62 31c-10 15-23.68 21.84-30 25-10 5-20 15-20 15s-10-10-20-15c-6.32-3.16-20-10-30-25 5-5 10 10 40 10 5 0 5-15 10-15s5 15 10 15c30 0 35-15 40-10Z"/>
</g>
<g transform="translate(102.8498332560182 285.49) rotate(15 37.15016674398179 24.509999999999998)">
<path d="M5.55 33.46S17.01 4.81 39.93 4.81s28.65 28.65 28.65 28.65-5.73 11.46-28.65 11.46S5.55 33.46 5.55 33.46" style="fill:#f5f3ee"/><path d="M5.55 33.46C2.68 30.6 17.08 4.1 40 4.1s31.44 26.5 28.58 29.36c-2.87 2.87-5.73-17.19-28.65-17.19S8.41 36.33 5.55 33.46" style="fill:#000"/><path d="M39.93 38.04c-6.34 0-11.46-5.12-11.46-11.46 0-6.33 5.12-11.46 11.46-11.46s11.46 5.13 11.46 11.46c0 6.34-5.12 11.46-11.46 11.46" style="fill:#000"/>
</g>
<g transform="translate(222.8498332560182 285.49) rotate(-15 37.15016674398179 24.509999999999998) scale(-1 1) translate(-74.30033348796358 0)">
<path d="M5.55 33.46S17.01 4.81 39.93 4.81s28.65 28.65 28.65 28.65-5.73 11.46-28.65 11.46S5.55 33.46 5.55 33.46" style="fill:#f5f3ee"/><path d="M5.55 33.46C2.68 30.6 17.08 4.1 40 4.1s31.44 26.5 28.58 29.36c-2.87 2.87-5.73-17.19-28.65-17.19S8.41 36.33 5.55 33.46" style="fill:#000"/><path d="M39.93 38.04c-6.34 0-11.46-5.12-11.46-11.46 0-6.33 5.12-11.46 11.46-11.46s11.46 5.13 11.46 11.46c0 6.34-5.12 11.46-11.46 11.46" style="fill:#000"/>
</g>
<g transform="translate(109 261.5) rotate(1 31 8.5)">
<path fill="#B55239" stroke="#000" d="M61 16V6L31 1 1 6v10l30-5z"/>
</g>
<g transform="translate(229 261.5) rotate(-1 31 8.5) scale(-1 1) translate(-62 0)">
<path fill="#B55239" stroke="#000" d="M61 16V6L31 1 1 6v10l30-5z"/>
</g>
<g transform="translate(-1.2900000000000205 20.56000000000006)">
<path d="M198.19 431.84c-7.3-1.3-14.7-2.5-22-3.9a67 67 0 0 1-10.6-3c-4.5-1.6-8.6-3.4-11.8 2.2-.5.9-3.1.6-4.7.9.2-1.5-.1-3.2.6-4.5 2.2-4.6 4.6-9.1 7.1-13.5.7-1.2 2.1-2.1 3.2-3.1.6 1.4 1.7 2.8 1.6 4.1a53.4 53.4 0 0 1-1.7 8.1c27.8 8.4 55.3 8.3 83.4.2-.1-1.3-.2-2.8-.2-4.2s.2-2.8.5-5.8c2 2.2 3.2 3.2 3.9 4.5 2 3.8 4 7.6 5.7 11.6.5 1.2.2 2.7.3 4-1.5-.2-3.3.1-4.4-.7-1.6-1.1-2.6-2.9-3.3-3.6-12.7 2.3-24.7 4.6-36.8 6.8-3.5-.1-7.1-.1-10.8-.1"/>
</g>
<g transform="translate(150.27785841680208 317.5) scale(0.52 0.52) translate(45.89736146141345 48.46153846153846)">
<path fill="#ddb7a0" stroke="#000" stroke-width="5" d="M36.03 47c-19.25.25-26.57 32.37-4.37 27.13 9-2.13 8.25 4.12 18.12 4.37 9.5.24 5.75-6.12 16.38-3.25 22.01 5.96 18.75-28-.21-28.02M50 55.6S51.25 45 51.25 35 50 5 50 5"/><path d="M40 95h20v5H40z" style="fill:none"/>
</g>
<g transform="scale(-1 1) translate(-400.5753564079345 0) scale(0.9400000000000001 1) translate(12.784319885359599 0)">
<path fill="#B55239" stroke="#000" stroke-width="4" d="M180.58 65.5c-.32.83-3.05 2.63-6.08 4-3.03 1.38-7.13 2.5-9.13 2.5-2.82 0-4.42.79-7.13 3.5-2.77 2.77-4.29 3.5-7.3 3.5-2.09 0-4.5.67-5.37 1.5-1.4 1.34-1.79 1.28-3.57-.5-1.1-1.1-2.68-2-3.5-2s-1.78.4-2.12.88c-.35.49-2.71.88-5.25.88-2.55-.01-6.43.77-8.63 1.72l-4 1.72L120 94c-10.02-.48-10.52-.29-11.71 2.25-.88 1.88-1.68 2.48-2.54 1.89-.69-.48-2.49-1.15-4-1.5S99 95.33 99 94.5s-.69-1.84-1.53-2.25c-.99-.49-2.02-.06-2.97 1.25-.79 1.1-1.23 2.56-.97 3.25s.02 1.47-.53 1.75-.99 1.51-.97 2.75-.63 3.6-1.45 5.25c-.81 1.65-1.27 3.34-1.03 3.75.25.41-.11.78-.8.81s-3.05.26-5.25.5c-2.2.25-5.01 1.12-6.25 1.95-1.24.82-2.25 2.16-2.25 2.99s-1.46 2.46-3.25 3.64c-2.39 1.57-4.05 1.96-6.25 1.47s-4.19-.02-7.5 1.77c-2.48 1.34-5.06 3.16-5.75 4.03-1.01 1.29-.97 1.87.25 3.09 1.33 1.33 1.33 1.69-.01 3.25-.83.96-1.25 2.43-.94 3.25.41 1.05-1 2.35-4.74 4.35-2.92 1.57-7.03 4.49-9.12 6.5-2.1 2.01-4.64 5-5.64 6.65-1.01 1.65-3 3.34-4.44 3.75S25 159.68 25 160.5s.39 2.29.87 3.25 1.15 3.44 1.5 5.5c.6 3.59.52 3.73-1.87 3.25-2.15-.43-2.77.09-4.47 3.75-1.91 4.14-1.92 4.32-.12 6.75 1.01 1.38 2.57 3.06 3.46 3.75 1.45 1.11 1.46 1.42.13 2.75-.82.82-1.5 2.18-1.5 3s.9 1.72 2 2c1.52.38 2 1.33 2 4 0 1.93-.45 3.5-1 3.5s-1.5 1.01-2.1 2.25c-.82 1.66-.8 2.77.08 4.25.96 1.64.71 3.12-1.4 8.25-2.37 5.74-2.46 6.45-1.08 8.75.82 1.38 2.59 3.06 3.93 3.75 2.33 1.2 2.36 1.34.75 3.59-1.15 1.6-1.33 2.54-.58 3 .6.36 1.05 1.45 1 2.41-.06.96-.66 1.75-1.35 1.75-.8 0-.99.63-.53 1.75.58 1.39.38 1.6-1 1-1.21-.53-2.02-.15-2.72 1.25q-1.005 1.995 0 7.5c.7 3.87 1.67 5.95 3.25 7.01 1.24.83 3.26 1.5 4.5 1.5 1.24-.01 2.48.44 2.75.99s.05 1.23-.5 1.5-1 2.52-1 5c0 4.3.12 4.49 2.75 4.25 2.39-.22 2.72.08 2.51 2.25-.14 1.38.41 3.18 1.22 4 1.23 1.25 1.27 2.05.25 4.76-.68 1.79-1.79 3.25-2.48 3.25-.69-.01-1.51 1.23-1.83 2.74-.36 1.72.02 3.6 1 5 .87 1.24 2.82 2.82 4.33 3.51 1.73.79 2.86 2.18 3.06 3.75.22 1.77-.48 3.07-2.41 4.49-1.58 1.16-2.44 2.52-2.06 3.25.47.89 3.98 1.25 12.16 1.25H60c0-20.92.18-21.84 3.25-27.82 1.79-3.48 4.92-8.43 6.96-11 2.05-2.58 4.37-5.8 5.17-7.18.79-1.37 2.85-11.95 4.56-23.5s3.44-22.37 3.84-24.05c.39-1.67 2.52-4.65 4.72-6.62 2.2-1.96 6.36-4.75 9.25-6.2s8.06-3.31 11.5-4.13c3.44-.83 10.97-1.79 16.75-2.13 7.69-.46 16.53 0 33 1.7 14.91 1.55 28.74 2.33 41 2.33s26.09-.78 41-2.33c16.47-1.7 25.31-2.16 33-1.7 5.77.34 13.31 1.3 16.75 2.13 3.44.82 8.61 2.69 11.5 4.15s7.15 4.27 9.47 6.25c3.98 3.39 4.31 4.09 5.75 12.1.83 4.68 2.42 15.36 3.52 23.75 1.11 8.39 2.7 16.49 3.55 18 .84 1.51 3.32 5 5.52 7.75 2.19 2.75 5.21 7.48 6.71 10.5 2.42 4.87 2.76 6.8 2.98 16.75L340 310l20.5-.5c-.28-3.87-.61-6.24-.93-7.75-.49-2.39-.04-3.08 3.43-5.25 2.2-1.37 4.23-3.4 4.5-4.5s.27-2.9 0-4-1.06-2-1.75-1.99c-.69 0-1.8-1.46-2.48-3.25-1.02-2.72-.98-3.51.28-4.76 1.05-1.05 1.29-2.4.79-4.5-.71-2.95-.67-2.99 2.47-2.25l3.19.75c0-6.98-.45-9.23-1-9.5s-.77-.95-.5-1.5 1.51-1 2.75-.99c1.24 0 3.26-.67 4.5-1.5 1.58-1.06 2.55-3.14 3.25-7.01q1.005-5.505 0-7.5c-.7-1.4-1.51-1.78-2.72-1.25-1.38.6-1.58.39-1-1 .5-1.21.26-1.75-.78-1.75-.82 0-1.51-.34-1.52-.75s.56-1.3 1.25-1.97c.8-.77 2.33-.95 4.14-.5 2.65.66 2.84.52 2.5-1.78-.3-2.02-.95-2.51-3.37-2.54-1.65-.02-3.68-.4-4.5-.86-1.19-.65-.83-1.21 1.75-2.71 1.79-1.04 3.7-2.79 4.25-3.89.76-1.52.38-3.51-1.58-8.25-2.11-5.13-2.36-6.61-1.4-8.25.88-1.48.9-2.59.08-4.25-.6-1.24-1.55-2.25-2.1-2.25s-1-1.57-1-3.5c0-2.67.48-3.62 2-4 1.1-.28 2-1.18 2-2s-.68-2.18-1.5-3c-1.33-1.33-1.32-1.64.13-2.75.89-.69 2.47-2.49 3.5-4 1.79-2.64 1.8-2.88.12-5.8-1-1.75-2.94-3.35-4.52-3.75-2.55-.64-2.72-.98-2.12-4.2.36-1.93 1.04-4.29 1.52-5.25s.87-2.43.87-3.25-1.17-1.84-2.61-2.25-3.43-2.1-4.44-3.75c-1-1.65-3.54-4.64-5.64-6.65-2.09-2.01-6.17-4.82-9.06-6.25-4.61-2.28-5.19-2.9-4.75-5.1.36-1.78.07-2.5-1-2.5-.82 0-1.79-.56-2.15-1.25s.2-1.82 1.25-2.53c1.42-.96 1.65-1.67.9-2.87-.55-.88-3.12-2.78-5.71-4.22-4.01-2.24-5.01-2.44-6.75-1.38-1.68 1.03-2.69.94-5.79-.5-2.06-.96-4.05-2.2-4.41-2.75-.37-.55-.48-1.56-.25-2.25.22-.69-.83-2-2.34-2.92-1.97-1.2-3.81-1.49-6.5-1-3.52.63-3.87.45-5.75-2.83-1.63-2.85-1.91-4.71-1.5-10l.5-6.5c-6.41.4-8.01 1-8 1.75 0 .69-1.24 1.54-2.75 1.89s-3.31 1.02-4 1.5c-.86.59-1.65-.01-2.53-1.89-.81-1.72-2.02-2.71-3.25-2.64-1.09.06-3.32.29-4.97.5l-3 .39.54-11c-6.87-3.24-10.09-3.91-12.76-3.75-2.35.14-4.51-.2-4.78-.75s-1.18-1-2-1-2.4.9-3.5 2c-1.81 1.81-2.17 1.85-3.75.48-1.4-1.22-3.02-1.37-8.01-.75l-6.27.77c.03-5.29-.24-5.48-3.6-5.25-2.14.15-3.86.87-4.18 1.75-.3.83-1.03 1.83-1.62 2.23-.59.41-1.63.75-2.32.75-.69.01-2.15-1.78-3.25-3.98s-2-4.67-2-5.5-.68-2.62-1.5-4c-.82-1.37-2.18-2.5-3-2.5s-2.29.9-3.25 2.01c-.96 1.1-2.2 2-2.75 2-.55-.01-1.56.88-2.25 1.99-.69 1.1-1.93 2-2.75 2s-1.5-.45-1.5-1-1.83-1.93-4.08-3.06c-2.68-1.36-4.99-1.85-6.75-1.44-1.89.45-2.89.18-3.42-.93S189.56 64 186.08 64c-3.44 0-5.09.45-5.5 1.5Z"/>
</g>
</svg>