<svg xmlns="http://www.w3.org/2000/svg" version="1.2" baseProfile="tiny" width="100%" height="100%" viewBox="0 0 400 600" preserveAspectRatio="xMinYMin meet">
<g transform="scale(0.9460000000000001 1) translate(11.298131748951446 0)">
<path fill="#1c1008" stroke="#000" stroke-width="4" d="M63 243s-11.25 45.2-20 72-22.23 81.18 12 102c17.75 10.8 56.25 13.8 56.25 13.8L308 437s44.75-5.2 52-58c6.01-43.79 6.25-79-32-125"/><path fill="#1c1008" stroke="#000" stroke-width="4" d="M341 393s-6.51 32.08-11.25 46.3c-2.5 7.5-7 19.5 1.25 35.7-13.3-2.88-30-22-30-22s-11.7 35.32-44.3 42.32c8-14.8 7.3-34.32 7.3-34.32M55 393s6.51 32.08 11.25 46.3c2.5 7.5 7 19.5-1.25 35.7 13.3-2.88 30-22 30-22s11.7 35.32 44.3 42.32c-8-14.8-7.3-34.32-7.3-34.32"/>
</g>
<g transform="scale(1.01 1) translate(-1.980198019801982 0)">
<path fill="#bb876f" stroke="#000" stroke-width="6" d="M10 600s-10-70 50-70c10 0 0-10 60-20 0 0 50-210 80-210s80 210 80 210c60 10 50 20 60 20 60 0 50 70 50 70"/><path d="M71 545s46.9-3 82.1 10M329 545s-46.9-3-82.1 10m77.1-18s5.5-7.5 22-7m-271 7s-5.5-7.5-22-7"/>
</g>
<g transform="scale(1.01 1) translate(-1.980198019801982 0)">
<path fill="#F00BA1" stroke="#000" stroke-width="6" d="M80 610s10-30 10-90l20-10s10 80 90 80 90-80 90-80l20 10c0 60 10 90 10 90z"/><path fill="#F00BA2" d="M85 575v25h230v-25h-65s-20 15-50 15-50-15-50-15z"/><path fill="none" stroke="#000" stroke-width="16" d="M90 520c0 60-10 90-10 90m230-90c0 60 10 90 10 90M110 510s10 80 90 80 90-80 90-80"/><path fill="none" stroke="#F00BA1" stroke-width="12" d="M90 520c0 60-10 90-10 90m230-90c0 60 10 90 10 90M110 510s10 80 90 80 90-80 90-80"/><path fill="none" stroke="#F00BA3" stroke-width="6" d="M90 520c0 60-10 90-10 90m230-90c0 60 10 90 10 90M110 510s10 80 90 80 90-80 90-80"/>
</g>
<g transform="translate(32 290.6) scale(1.32 1.32) translate(-5.575757575757576 -8.339393939393942) translate(5.370000000000001 -3)">
<path fill="#bb876f" stroke="#000" stroke-width="6" d="M43 13S23 3 13 3 3 23 3 33s3 20 13 30 27-10 27-10z"/>
</g>
<g transform="translate(322 290.6) scale(-1.32 1.32) translate(-40.42424242424243 -8.339393939393942) translate(5.370000000000001 -3)">
<path fill="#bb876f" stroke="#000" stroke-width="6" d="M43 13S23 3 13 3 3 23 3 33s3 20 13 30 27-10 27-10z"/>
</g>
<g transform="scale(0.9460000000000001 1) translate(11.416490486257914 0)">
<path fill="#bb876f" stroke="#000" stroke-width="6" d="M200 100c100 0 150 60 150 200-20 180-10 140-90 180-30 10-40 20-60 20s-30-10-60-20c-80-40-70 0-90-180 0-140 50-200 150-200Z"/><path fill="rgba(0,0,0,0)" d="M60 300H50c0-140 50-200 150-200s150 60 150 200h-10v-10c0-5-10-20-15-25s-5-55-15-65c-40-40-60 0-110 0s-70-40-110 0c-10 10-10 60-15 65s-15 20-15 25z"/><path fill="rgba(0,0,0,0)" d="M200 410c30 0 50 10 50 10 30 0 90-15 90-120h10c-20 180.69-10 140-90 180-30 10-40 20-60 20s-30-10-60-20c-80-40-70 0-90-180h10c0 105 60 120 90 120 0 0 20-10 50-10"/>
</g>
<g>
<path fill="none" stroke="#000" stroke-width="2" d="M220 270s-10 0-10-20m-30 20s10 0 10-20"/>
</g>
<g transform="translate(142.67 417.5) scale(0.73 0.73) translate(2.711095890410959 6.472602739726028)">
<path fill="none" stroke="#000" stroke-width="2" d="M12.33 4.32s-10 3.29-10 13.18 10 13.18 10 13.18"/>
</g>
<g transform="translate(242.67 417.5) scale(-0.73 0.73) translate(-17.37109589041096 6.472602739726028)">
<path fill="none" stroke="#000" stroke-width="2" d="M12.33 4.32s-10 3.29-10 13.18 10 13.18 10 13.18"/>
</g>
<g>
<path fill="none" stroke="#000" stroke-width="2" d="M170 235s15 0 30 5c15-5 30-5 30-5m-75-15s35 0 45 5c10-5 45-5 45-5"/>
</g>
<g transform="scale(0.9460000000000001 1) translate(11.416490486257914 0)">
<path fill="#1c1008" stroke="#000" d="M188 454c2-4 22-4 24 0 4.12 8.25-12 21-12 21s-16.12-12.75-12-21Zm62 31c-10 15-23.68 21.84-30 25-10 5-20 15-20 15s-10-10-20-15c-6.32-3.16-20-10-30-25 5-5 10 10 40 10 5 0 5-15 10-15s5 15 10 15c30 0 35-15 40-10Z"/>
</g>
<g transform="translate(101 299.4999966529182) rotate(4 39 10.500003347081822)">
<path d="M74 18 69 3H4l5 15z" style="fill:#fff;stroke:#000;stroke-width:5"/><path d="M38.5 18a7.49 7.49 0 0 1-7.5-7.5C31 6.35 34.35 3 38.5 3S46 6.35 46 10.5 42.65 18 38.5 18Z" style="fill:#000;stroke:#000;stroke-width:5"/>
</g>
<g transform="translate(221 299.4999966529182) rotate(-4 39 10.500003347081822) scale(-1 1) translate(-78 0)">
<path d="M74 18 69 3H4l5 15z" style="fill:#fff;stroke:#000;stroke-width:5"/><path d="M38.5 18a7.49 7.49 0 0 1-7.5-7.5C31 6.35 34.35 3 38.5 3S46 6.35 46 10.5 42.65 18 38.5 18Z" style="fill:#000;stroke:#000;stroke-width:5"/>
</g>
<g transform="translate(97.20374849998123 252.4995916989505) rotate(6 42.79625150001876 17.50040830104949)">
<path fill="#1c1008" stroke="#000" d="M12.93 15.05c-1.51.67-4.18 2.29-5.94 3.61s-3.38 2.8-3.61 3.29c-.22.49-.16.96.13 1.04.3.08 4.44-.28 9.21-.79 4.77-.52 11.58-1.06 15.13-1.21s11.63-.28 17.94-.29c6.32-.01 14.56.12 18.32.29 3.75.17 8.39.25 10.29.19 1.91-.05 4.56-.27 5.89-.47 2.09-.32 2.33-.53 1.84-1.57-.42-.91-1.74-1.55-5.18-2.53-2.54-.73-7.86-1.72-11.83-2.22-3.97-.49-10.99-1.19-15.6-1.55-4.62-.36-11.91-.72-16.22-.81-6.13-.11-8.91.06-12.73.83-2.69.53-6.13 1.52-7.64 2.19Z"/>
</g>
<g transform="translate(217.20374849998123 252.4995916989505) rotate(-6 42.79625150001876 17.50040830104949) scale(-1 1) translate(-85.59250300003752 0)">
<path fill="#1c1008" stroke="#000" d="M12.93 15.05c-1.51.67-4.18 2.29-5.94 3.61s-3.38 2.8-3.61 3.29c-.22.49-.16.96.13 1.04.3.08 4.44-.28 9.21-.79 4.77-.52 11.58-1.06 15.13-1.21s11.63-.28 17.94-.29c6.32-.01 14.56.12 18.32.29 3.75.17 8.39.25 10.29.19 1.91-.05 4.56-.27 5.89-.47 2.09-.32 2.33-.53 1.84-1.57-.42-.91-1.74-1.55-5.18-2.53-2.54-.73-7.86-1.72-11.83-2.22-3.97-.49-10.99-1.19-15.6-1.55-4.62-.36-11.91-.72-16.22-.81-6.13-.11-8.91.06-12.73.83-2.69.53-6.13 1.52-7.64 2.19Z"/>
</g>
<g transform="translate(0 5)">
<path d="M170 430s10 10 30 10 30-10 30-10" style="fill:none;stroke:#000;stroke-width:5"/>
</g>
<g transform="translate(174.5 336.5) scale(-0.75 0.75) translate(-59.5 11.166666666666666)">
<path fill="#bb876f" stroke="#000" stroke-width="5" d="m28 1 20 45s-5 20-25 20S3 46 3 46"/>
</g>
<g transform="scale(0.9460000000000001 1) translate(11.416490486257914 0)">
<defs><linearGradient id="a" x1="200" x2="200" y1="100" y2="310" gradientUnits="userSpaceOnUse"><stop offset="0" stop-color="rgba(0,0,0,.25)"/><stop offset="1" stop-color="rgba(0,0,0,0)"/></linearGradient></defs><path d="M60 310H50v-10c0-140 50-200 150-200s150 60 150 200v10h-10v-20c0-5-10-20-15-25s-5-55-15-65c-40-40-60 0-110 0s-70-40-110 0c-10 10-10 60-15 65s-15 20-15 25z" style="fill:url(#a);stroke:none"/>
</g>
</svg>