<svg xmlns="http://www.w3.org/2000/svg" version="1.2" baseProfile="tiny" width="100%" height="100%" viewBox="0 0 400 600" preserveAspectRatio="xMinYMin meet">
<g transform="scale(0.8320000000000001 1) translate(40.4855769230769 0)">
<path fill="#e9c67b" stroke="#000" stroke-width="4" d="M59.75 313.8s-8.5 30.69-5.25 60.4c11.25-19.71 25-32.34 25-32.34S64.17 391.7 69.17 416.2c16.5-28 26.66-41.67 26.66-41.67S86.5 427.7 91.5 460.2c18-33 33.67-47.67 33.67-47.67s-14.3 40.12-8.3 75.12c21.5-46 81.38-32.85 81.38-32.85L196 325zm281.5 0s8.5 30.69 5.25 60.4c-11.25-19.71-25-32.34-25-32.34s15.33 49.84 10.33 74.34c-16.5-28-26.66-41.67-26.66-41.67s9.33 53.17 4.33 85.67c-18-33-33.67-47.67-33.67-47.67s14.3 40.12 8.3 75.12c-21.5-46-81.38-32.85-81.38-32.85L205 325z"/>
</g>
<g transform="scale(1.05 1) translate(-9.523809523809533 0)">
<path fill="#ddb7a0" stroke="#000" stroke-width="6" d="M10 600s-10-70 50-70c10 0 0-10 60-20 0 0 50-210 80-210s80 210 80 210c60 10 50 20 60 20 60 0 50 70 50 70"/><path d="M71 545s46.9-3 82.1 10M329 545s-46.9-3-82.1 10m77.1-18s5.5-7.5 22-7m-271 7s-5.5-7.5-22-7"/>
</g>
<g transform="scale(1.05 1) translate(-9.523809523809533 0)">
<path fill="#F00BA1" stroke="#000" stroke-width="6" d="M80 610s10-30 10-90l20-10s10 80 90 80 90-80 90-80l20 10c0 60 10 90 10 90z"/><path fill="#F00BA2" d="M85 575v25h230v-25h-65s-20 15-50 15-50-15-50-15z"/><path fill="none" stroke="#000" stroke-width="16" d="M90 520c0 60-10 90-10 90m230-90c0 60 10 90 10 90M110 510s10 80 90 80 90-80 90-80"/><path fill="none" stroke="#F00BA1" stroke-width="12" d="M90 520c0 60-10 90-10 90m230-90c0 60 10 90 10 90M110 510s10 80 90 80 90-80 90-80"/><path fill="none" stroke="#F00BA3" stroke-width="6" d="M90 520c0 60-10 90-10 90m230-90c0 60 10 90 10 90M110 510s10 80 90 80 90-80 90-80"/>
</g>
<g transform="translate(32 293.3) scale(0.93 0.93) translate(1.7311827956989236 2.3860215053763425) translate(23.04 -3)">
<path fill="#ddb7a0" stroke="#000" stroke-width="6" d="M43 8S3-12 3 28c0 45 40 30 40 30z"/>
</g>
<g transform="translate(322 293.3) scale(-0.93 0.93) translate(-47.73118279569892 2.3860215053763425) translate(23.04 -3)">
<path fill="#ddb7a0" stroke="#000" stroke-width="6" d="M43 8S3-12 3 28c0 45 40 30 40 30z"/>
</g>
<g transform="scale(0.8320000000000001 1) translate(40.384615384615365 0)">
<path fill="#ddb7a0" stroke="#000" stroke-width="6" d="M200 100c100 0 150 60 150 200 0 160-80 170-100 190-10 10-30 20-50 10-20 10.9-40 0-50-10-20-20-100-30-100-190 0-140 50-200 150-200Z"/><path fill="rgba(0,0,0,0)" d="M60 300H50c0-140 50-200 150-200s150 60 150 200h-10v-10c0-5-10-20-15-25s-5-55-15-65c-40-40-60 0-110 0s-70-40-110 0c-10 10-10 60-15 65s-15 20-15 25z"/><path fill="rgba(0,0,0,0)" d="M200 410c30 0 50 10 50 10 30 0 90-15 90-120h10c0 160-80 170-100 190-10 10-30 20-50 10-20 10-40 0-50-10-20-20-100-30-100-190h10c0 105 60 120 90 120 0 0 20-10 50-10"/>
</g>
<g transform="translate(140.5 420.5) scale(1.37 1.37) translate(-2.565693430656935 -3.916058394160585)">
<path fill="none" stroke="#000" stroke-width="2" d="M17 2 2 12l5 15"/>
</g>
<g transform="translate(240.5 420.5) scale(-1.37 1.37) translate(-16.434306569343065 -3.916058394160585)">
<path fill="none" stroke="#000" stroke-width="2" d="M17 2 2 12l5 15"/>
</g>
<g>
<path fill="none" stroke="#000" stroke-width="2" d="M155 220s35 0 45 5c10-5 45-5 45-5"/>
</g>
<g transform="translate(-120.05628769726621 -25.250646588503912) rotate(-7 260.0562876972662 335.2506465885039)">
<path d="M259.01 349.54c-13.866-.398-24.58-15.35-24.58-28.312 14.975.007 34.492.1 51.25-.275.204 12.79-11.737 29.015-26.67 28.587" style="fill:#fff;stroke:#000;stroke-linecap:round;stroke-linejoin:round;stroke-width:5"/><path d="M259.552 325.177c-10 0-10 15 0 15s10-15 0-15" style="fill:#000;stroke:#000;stroke-linecap:round;stroke-linejoin:round;stroke-width:4"/>
</g>
<g transform="translate(-0.056287697266213854 -25.250646588503912) rotate(7 260.0562876972662 335.2506465885039) scale(-1 1) translate(-520.1125753945324 0)">
<path d="M259.01 349.54c-13.866-.398-24.58-15.35-24.58-28.312 14.975.007 34.492.1 51.25-.275.204 12.79-11.737 29.015-26.67 28.587" style="fill:#fff;stroke:#000;stroke-linecap:round;stroke-linejoin:round;stroke-width:5"/><path d="M259.552 325.177c-10 0-10 15 0 15s10-15 0-15" style="fill:#000;stroke:#000;stroke-linecap:round;stroke-linejoin:round;stroke-width:4"/>
</g>
<g transform="translate(99.82499568420577 257.4995916989505) rotate(-7 40.175004315794226 12.50040830104949)">
<path fill="#e9c67b" stroke="#000" d="M25.63 10.05c-1.19.67-3.29 2.29-4.68 3.61s-2.66 2.8-2.84 3.29-.13.96.1 1.04 3.5-.28 7.26-.79c3.76-.52 9.13-1.06 11.92-1.21 2.8-.15 9.17-.28 14.14-.29 4.98-.01 11.48.12 14.44.29s6.61.25 8.12.19c1.5-.05 3.59-.27 4.63-.47 1.65-.32 1.85-.53 1.46-1.57-.33-.91-1.38-1.55-4.09-2.53-2-.73-6.19-1.72-9.32-2.22-3.13-.49-8.67-1.19-12.3-1.55-3.64-.36-9.39-.72-12.78-.81-4.83-.11-7.02.06-10.04.83-2.12.53-4.83 1.52-6.02 2.19Z"/><path d="M0 10h5v5H0z" style="fill:none"/>
</g>
<g transform="translate(219.82499568420576 257.4995916989505) rotate(7 40.175004315794226 12.50040830104949) scale(-1 1) translate(-80.35000863158845 0)">
<path fill="#e9c67b" stroke="#000" d="M25.63 10.05c-1.19.67-3.29 2.29-4.68 3.61s-2.66 2.8-2.84 3.29-.13.96.1 1.04 3.5-.28 7.26-.79c3.76-.52 9.13-1.06 11.92-1.21 2.8-.15 9.17-.28 14.14-.29 4.98-.01 11.48.12 14.44.29s6.61.25 8.12.19c1.5-.05 3.59-.27 4.63-.47 1.65-.32 1.85-.53 1.46-1.57-.33-.91-1.38-1.55-4.09-2.53-2-.73-6.19-1.72-9.32-2.22-3.13-.49-8.67-1.19-12.3-1.55-3.64-.36-9.39-.72-12.78-.81-4.83-.11-7.02.06-10.04.83-2.12.53-4.83 1.52-6.02 2.19Z"/><path d="M0 10h5v5H0z" style="fill:none"/>
</g>
<g transform="translate(-1.2900000000000205 20.56000000000006)">
<path d="M198.19 431.84c-7.3-1.3-14.7-2.5-22-3.9a67 67 0 0 1-10.6-3c-4.5-1.6-8.6-3.4-11.8 2.2-.5.9-3.1.6-4.7.9.2-1.5-.1-3.2.6-4.5 2.2-4.6 4.6-9.1 7.1-13.5.7-1.2 2.1-2.1 3.2-3.1.6 1.4 1.7 2.8 1.6 4.1a53.4 53.4 0 0 1-1.7 8.1c27.8 8.4 55.3 8.3 83.4.2-.1-1.3-.2-2.8-.2-4.2s.2-2.8.5-5.8c2 2.2 3.2 3.2 3.9 4.5 2 3.8 4 7.6 5.7 11.6.5 1.2.2 2.7.3 4-1.5-.2-3.3.1-4.4-.7-1.6-1.1-2.6-2.9-3.3-3.6-12.7 2.3-24.7 4.6-36.8 6.8-3.5-.1-7.1-.1-10.8-.1"/>
</g>
<g transform="translate(0 -20) scale(-0.94 0.94) translate(-412.76595744680856 24.89361702127662)">
<path fill="#ddb7a0" stroke="#000" stroke-width="5" d="m175 380 25 20 25-20"/>
</g>
<g transform="scale(0.8320000000000001 1) translate(40.50824259264835 0)">
<path fill="#e9c67b" stroke="#000" stroke-width="5" d="M185 76.42c-2.48.71-5.63 1.74-7 2.3-1.38.56-3.85 2.13-5.5 3.48-1.65 1.36-5.7 4.34-9 6.64s-8.25 5.77-11 7.71c-3.51 2.48-6.04 3.51-8.5 3.47-1.93-.03-5.3.57-7.5 1.34-2.2.78-8.95 2.18-15 3.12-6.05.95-13.93 2.39-17.5 3.21-3.58.82-8.53 2.52-11 3.78-2.5 1.27-6.18 4.45-8.3 7.16-2.39 3.07-4.54 7.46-5.81 11.87-1.1 3.85-3.33 11.05-4.95 16s-3.85 13.72-4.95 19.5c-1.29 6.71-2.87 11.76-4.37 14-1.29 1.92-6.25 8-11.01 13.5-5.96 6.87-9.96 12.66-12.81 18.5-3.02 6.22-4.25 10.11-4.57 14.5-.3 4.21.35 9.44 2.2 17.5 2.18 9.54 2.45 12.27 1.62 16-.55 2.47-1.91 6.86-3.02 9.75-1.12 2.89-2.31 7.61-2.65 10.5-.33 2.89-.12 7.72.49 10.75.75 3.73 2.31 7.04 4.87 10.29 2.07 2.63 4.21 4.95 4.76 5.15s3.47-.46 6.5-1.47c3.02-1.01 6.42-2.88 7.55-4.15 1.12-1.28 3.08-5.02 4.34-8.32s2.93-8.93 3.71-12.5c.88-4.04 2.45-7.77 4.16-9.84 1.51-1.84 3.5-4.54 4.42-6 1.09-1.71 2.8-10.34 4.79-24.16 1.71-11.83 3.56-23.3 4.12-25.5.55-2.2 1.42-5.13 1.93-6.5.51-1.38 3.53-4.78 6.7-7.56 3.18-2.78 9.83-7.8 14.78-11.15 6.91-4.68 10.16-6.24 14-6.75 3.19-.42 7.71-.09 12.5.91 4.12.87 13.57 3.81 21 6.53 7.42 2.73 17.77 5.9 23 7.06 5.22 1.16 10.4 2.27 11.5 2.47s4.14 2.19 6.75 4.43c3.82 3.27 5.08 5.18 6.43 9.81.93 3.16 2.5 6.54 3.5 7.5s2.61 1.76 3.57 1.77c.96 0 5.8-1.97 10.75-4.4 4.95-2.42 12.61-6.59 17.02-9.26s12.29-8.09 17.5-12.04c6.1-4.63 10.1-8.46 11.23-10.75 1.32-2.7 2.54-3.71 5-4.15 1.79-.32 5.95-.09 9.25.5s8.92 2.52 12.5 4.29c4.02 1.98 9.02 5.7 13.11 9.75 5.37 5.31 6.92 7.57 8.22 12.04.88 3.02 2.28 9.1 3.12 13.5s2.45 14.97 3.59 23.5c1.31 9.87 2.71 16.59 3.84 18.5.98 1.65 2.08 6.04 2.45 9.75s2.03 10.46 3.7 15c1.66 4.54 4.11 9.82 5.43 11.75 1.32 1.92 3.98 4.4 5.92 5.5 3.08 1.75 3.99 1.85 7.32.8 3.05-.96 4.64-2.5 8.05-7.75 2.34-3.6 4.7-8.58 5.25-11.05.55-2.48 1.67-5.85 2.5-7.5.97-1.94 1.5-5.91 1.5-11.25-.01-7.47-.34-8.89-3.5-15-2.44-4.71-3.49-8.04-3.46-11 .03-2.34.7-6.05 1.49-8.25s1.45-6.93 1.47-10.5c.02-3.58.68-9.2 1.48-12.5s1.47-7.58 1.5-9.5c.04-2.67-.72-4.26-3.21-6.71-1.8-1.76-7.09-5.81-11.76-9-6.74-4.6-9.56-7.33-13.71-13.29-2.88-4.13-5.89-9.3-6.69-11.5-.81-2.2-1.7-5.13-1.98-6.5-.28-1.38-3.4-6.78-6.93-12-3.53-5.23-8.64-14-11.36-19.5s-6.17-11.8-7.67-14c-1.51-2.2-4.86-5.74-7.45-7.88-2.6-2.13-6.66-4.83-9.02-6-4.03-1.98-4.78-2.04-11.75-.87-6.87 1.15-7.82 1.09-12.2-.77-2.61-1.12-6.33-2.02-8.25-2.01-1.93.01-5.3-.47-7.5-1.06-2.2-.6-7.83-2.8-12.5-4.9-4.68-2.09-12.1-4.96-16.5-6.38s-11.26-3.27-15.25-4.11c-3.99-.83-8.49-1.49-10-1.45-1.51.03-4.78.64-7.25 1.35Z"/>
</g>
</svg>