<svg xmlns="http://www.w3.org/2000/svg" version="1.2" baseProfile="tiny" width="100%" height="100%" viewBox="0 0 400 600" preserveAspectRatio="xMinYMin meet">
<g transform="scale(0.95 1) translate(10.526315789473692 0)">
<path fill="#f2d6cb" stroke="#000" stroke-width="6" d="M5 600s-5-60 35-70c0 0 40 0 90-30l70-200 70 200c50 30 90 30 90 30 40 10 35 70 35 70"/>
</g>
<g transform="scale(0.95 1) translate(10.526315789473694 0)">
<path fill="#F00BA1" stroke="#000" stroke-width="6" d="M80 610s10-30 10-90l20-10s10 80 90 80 90-80 90-80l20 10c0 60 10 90 10 90z"/><path fill="#F00BA2" d="M85 575v25h230v-25h-65s-20 15-50 15-50-15-50-15z"/><path fill="none" stroke="#000" stroke-width="16" d="M90 520c0 60-10 90-10 90m230-90c0 60 10 90 10 90M110 510s10 80 90 80 90-80 90-80"/><path fill="none" stroke="#F00BA1" stroke-width="12" d="M90 520c0 60-10 90-10 90m230-90c0 60 10 90 10 90M110 510s10 80 90 80 90-80 90-80"/><path fill="none" stroke="#F00BA3" stroke-width="6" d="M90 520c0 60-10 90-10 90m230-90c0 60 10 90 10 90M110 510s10 80 90 80 90-80 90-80"/>
</g>
<g transform="translate(32 293.3) scale(1.23 1.23) translate(-4.30081300813008 -5.927642276422764) translate(15.91 -3)">
<path fill="#f2d6cb" stroke="#000" stroke-width="6" d="M43 8S3-12 3 28c0 45 40 30 40 30z"/>
</g>
<g transform="translate(322 293.3) scale(-1.23 1.23) translate(-41.699186991869915 -5.927642276422764) translate(15.91 -3)">
<path fill="#f2d6cb" stroke="#000" stroke-width="6" d="M43 8S3-12 3 28c0 45 40 30 40 30z"/>
</g>
<g transform="scale(0.8780000000000001 1) translate(27.790432801822295 0)">
<path fill="#f2d6cb" stroke="#000" stroke-width="6" d="M200 100c100 0 150 60 150 200 0 120-10 150-110 190 0 0-20 10-40 10s-40-10-40-10C60 450 50 420 50 300c0-140 50-200 150-200Z"/><path fill="rgba(0,0,0,0)" d="M60 300H50c0-140 50-200 150-200s150 60 150 200h-10v-10c0-5-10-20-15-25s-5-55-15-65c-40-40-60 0-110 0s-70-40-110 0c-10 10-10 60-15 65s-15 20-15 25z"/><path fill="rgba(0,0,0,0)" d="M200 410c30 0 50 10 50 10 30 0 90-15 90-120h10c0 120-10 150-110 190 0 0-20 10-40 10s-40-10-40-10C60 450 50 420 50 300h10c0 105 60 120 90 120 0 0 20-10 50-10"/>
</g>
<g transform="translate(140.5 420.5) scale(0.6 0.6) translate(6.333333333333334 9.666666666666668)">
<path fill="none" stroke="#000" stroke-width="2" d="M17 2 2 12l5 15"/>
</g>
<g transform="translate(240.5 420.5) scale(-0.6 0.6) translate(-25.333333333333336 9.666666666666668)">
<path fill="none" stroke="#000" stroke-width="2" d="M17 2 2 12l5 15"/>
</g>
<g>
<path fill="none" stroke="#000" stroke-width="2" d="M155 220s35 0 45 5c10-5 45-5 45-5"/>
</g>
<g transform="translate(104.75510204081633 287) rotate(-1 35.24489795918368 23)">
<path d="M67 35c0-4 6-32-24-32S3 15 3 23s12 20 24 20 40-4 40-8Z" style="fill:#fff;stroke:#000;stroke-width:5"/><path d="M39 29c-3.32 0-6-2.68-6-6s2.68-6 6-6 6 2.68 6 6-2.68 6-6 6Z" style="fill:#000;stroke:#000;stroke-width:5"/>
</g>
<g transform="translate(224.75510204081633 287) rotate(1 35.24489795918368 23) scale(-1 1) translate(-70.48979591836736 0)">
<path d="M67 35c0-4 6-32-24-32S3 15 3 23s12 20 24 20 40-4 40-8Z" style="fill:#fff;stroke:#000;stroke-width:5"/><path d="M39 29c-3.32 0-6-2.68-6-6s2.68-6 6-6 6 2.68 6 6-2.68 6-6 6Z" style="fill:#000;stroke:#000;stroke-width:5"/>
</g>
<g transform="translate(101.05152592374387 261.3) rotate(1 38.94847407625614 8.7)">
<path fill="#2C1608" stroke="#000" d="M73 13c4.85-1.21 0-10-10-10S3 8 3 8s50 10 70 5Z"/>
</g>
<g transform="translate(221.05152592374387 261.3) rotate(-1 38.94847407625614 8.7) scale(-1 1) translate(-77.89694815251228 0)">
<path fill="#2C1608" stroke="#000" d="M73 13c4.85-1.21 0-10-10-10S3 8 3 8s50 10 70 5Z"/>
</g>
<g transform="translate(0 48.766108367626885) scale(-1 1) translate(-400 0)">
<path d="M168 384s9-13.77 32-14.03c17.4-.2 32 13.2 32 13.2s-4.29 28.26-32 28.83c-27.29.56-32-28-32-28" style="opacity:.05;mix-blend-mode:multiply;fill:#501414"/><path d="M168 384c12-4 48-4 64 0-8 8-10 16-32 16-20 0-24-8-32-16Z" style="fill:#000;stroke:#000"/><path d="M168 384c12-4 48-4 64 0-20 4-10 4-32 4-20 0-16 0-32-4m12 12s14-1 20-1 20 1 20 1-4 4-20 4c-12 0-20-4-20-4" style="fill:#fff"/><path d="M168 384c12-4 48-4 64 0-8 8-10 16-32 16-20 0-24-8-32-16Zm16 24c12 6 20 6 32 0m4.29-33.12c-14.52-5.66-27.29-6.34-40.29.09" style="fill:none;stroke:#000;stroke-width:4"/>
</g>
<g transform="translate(0 -21.52777777777783) scale(0.89 0.89) translate(24.7191011235955 48.391073657927585)">
<path fill="#f2d6cb" stroke="#000" stroke-width="5" d="M170 390s10-10 20 0 10 10 20 0 20 0 20 0"/>
</g>
<g transform="scale(-1 1) translate(-400 0) scale(0.8780000000000001 1) translate(27.790432801822295 0)">
<path fill="#2C1608" stroke="#000" stroke-width="4" d="M60 310H50v-75h-5l10-25-15 5 20-30H45l25-25-15-5 30-17.95L70 130l32.5-7.95L90 115l35-5-7.5-12.45L155 100l-15-15 40 7.55L175 75l30 15-5-20 25 20 35-10-15 15h30l-15 10 40 2.55-15 7.45 35 5-17.5 7.55L340 145l-17.5 5 27.5 20-15 10 25 35h-12.5l7.5 20h-5v75h-10v-20c0-5-10-20-15-25s-5-65.3-15-75.3l-6.33 11s-4.34-8.7-4.34-9c0-.29-11.66 12.67-11.66 12.67L285 189.7l-21 20.67.33-18-26.66 24.33 3.33-25-30.33 22 .33-20.33-27.33 28L187.5 195 166 213.7l1-15.66-23.33 19.33 4-23.33L123 208.37l2-16.67-23 21.67.33-21.67-12.66 8.34L90 190c-10 10-10 70-15 75s-15 20-15 25z"/>
</g>
</svg>