<svg xmlns="http://www.w3.org/2000/svg" version="1.2" baseProfile="tiny" width="100%" height="100%" viewBox="0 0 400 600" preserveAspectRatio="xMinYMin meet">
<g transform="scale(0.97 1) translate(6.185567010309284 0)">
<path fill="#ad6453" stroke="#000" stroke-width="6" d="M10 600s0-50 60-70 70-50 70-50l60-180 60 180s10 30 70 50 60 70 60 70"/>
</g>
<g transform="scale(0.97 1) translate(6.185567010309284 0)">
<path fill="#F00BA1" stroke="#000" stroke-width="6" d="M80 610s10-30 10-90l20-10s10 80 90 80 90-80 90-80l20 10c0 60 10 90 10 90z"/><path fill="#F00BA2" d="M85 575v25h230v-25h-65s-20 15-50 15-50-15-50-15z"/><path fill="none" stroke="#000" stroke-width="16" d="M90 520c0 60-10 90-10 90m230-90c0 60 10 90 10 90M110 510s10 80 90 80 90-80 90-80"/><path fill="none" stroke="#F00BA1" stroke-width="12" d="M90 520c0 60-10 90-10 90m230-90c0 60 10 90 10 90M110 510s10 80 90 80 90-80 90-80"/><path fill="none" stroke="#F00BA3" stroke-width="6" d="M90 520c0 60-10 90-10 90m230-90c0 60 10 90 10 90M110 510s10 80 90 80 90-80 90-80"/>
</g>
<g transform="translate(33.53553390593274 291.01362954285077) scale(1.28 1.28) translate(-4.695351958077214 -7.434518537501394) translate(6.991067811865474 -2.979591836734694)">
<path fill="#ad6453" stroke="#000" stroke-width="6" d="M40 14S10-1 5 4s0 30 5 40-5 25 30 20z"/>
</g>
<g transform="translate(323.53553390593277 291.01362954285077) scale(-1.28 1.28) translate(-38.23358023005731 -7.434518537501394) translate(6.991067811865474 -2.979591836734694)">
<path fill="#ad6453" stroke="#000" stroke-width="6" d="M40 14S10-1 5 4s0 30 5 40-5 25 30 20z"/>
</g>
<g transform="scale(0.936 1) translate(13.675213675213664 0)">
<path fill="#ad6453" stroke="#000" stroke-width="6" d="M200 100c100 0 150 60 150 200 0 0-20 105-20 135s-60 45-80 55-10 15-50 5c-40 10-30 5-50-5s-80-25-80-55-20-135-20-135c0-140 50-200 150-200Z"/><path fill="rgba(0,0,0,0)" d="M60 300H50c0-140 50-200 150-200s150 60 150 200h-10v-10c0-5-10-20-15-25s-5-55-15-65c-40-40-60 0-110 0s-70-40-110 0c-10 10-10 60-15 65s-15 20-15 25z"/><path fill="rgba(0,0,0,0)" d="M200 410c30 0 50 10 50 10 30 0 90-15 90-120h10s-20 105-20 135-60 45-80 55-10 15-50 5c-40 10-30 5-50-5s-80-25-80-55-20-135-20-135h10c0 105 60 120 90 120 0 0 20-10 50-10"/>
</g>
<g>
<path fill="none" stroke="#000" stroke-width="2" d="M240 340s25 10 40 0m-120 0s-25 10-40 0"/>
</g>
<g transform="scale(0.936 1) translate(13.677777777777765 0)">
<path fill="#272421" stroke="#000" d="M341.86 329.762c-18.78 98.415-39.492 102.786-40.731 106.121-16.86 17.717-52.855 38.72-62.486 41.411-18.05 5.044-27.166 6.53-27.222 4.596-.084-2.842 0-14.947 0-14.947s-7.232-.02-11.188 0c-3.985.02-11.47 0-11.47 0s.03 11.263 0 14.947c-.022 2.551-15.622-.996-29.079-4.596-9.66-2.585-48.654-24.496-61.946-42.674-2.083-2.473-22.699-13.454-39.524-104.858h-10c6.25 93.092 30.023 116.409 32.351 120.951 0 0 44.861 57.484 119.668 57.548 75 .065 117.788-57.548 117.788-57.548 2.596-5.716 23.22-21.704 33.84-120.951z"/><path fill="#272421" stroke="#000" d="M150 425c-5-5 25-20 35-20 5 0 10 5 15 5s10-5 15-5c10 0 40 15 35 20s-5-5-50-5-45 10-50 5Z"/>
</g>
<g transform="translate(98.84448468063304 285.57536672288046) rotate(12 41.155515319366955 24.42463327711953)">
<path d="M73.67 39.73c3.92-10.47 2.35-25.38 2.35-25.38s-35.86-6.27-45.8-5.22c-9.95 1.04-24.34 7.59-24.34 7.59s-1.44 10.21 7.6 24.34z" style="fill:#fff"/><path d="M45.8 37.65c-4.13.43-8.17-5.88-9.04-14.13s1.76-15.27 5.89-15.71c4.12-.43 8.16 5.88 9.03 14.13s-1.76 15.27-5.88 15.71" style="fill:#000"/><path d="M73.67 39.73c4.45-5.49 2.35-25.38 2.35-25.38s-35.86-6.27-45.8-5.22c-9.95 1.04-24.34 7.59-24.34 7.59s1.57 14.92 7.6 24.34" style="fill:none;stroke:#000;stroke-width:5"/>
</g>
<g transform="translate(218.84448468063306 285.57536672288046) rotate(-12 41.155515319366955 24.42463327711953) scale(-1 1) translate(-82.31103063873391 0)">
<path d="M73.67 39.73c3.92-10.47 2.35-25.38 2.35-25.38s-35.86-6.27-45.8-5.22c-9.95 1.04-24.34 7.59-24.34 7.59s-1.44 10.21 7.6 24.34z" style="fill:#fff"/><path d="M45.8 37.65c-4.13.43-8.17-5.88-9.04-14.13s1.76-15.27 5.89-15.71c4.12-.43 8.16 5.88 9.03 14.13s-1.76 15.27-5.88 15.71" style="fill:#000"/><path d="M73.67 39.73c4.45-5.49 2.35-25.38 2.35-25.38s-35.86-6.27-45.8-5.22c-9.95 1.04-24.34 7.59-24.34 7.59s1.57 14.92 7.6 24.34" style="fill:none;stroke:#000;stroke-width:5"/>
</g>
<g transform="translate(99.82499568420577 257.4995916989505) rotate(2 40.175004315794226 12.50040830104949)">
<path fill="#272421" stroke="#000" d="M25.63 10.05c-1.19.67-3.29 2.29-4.68 3.61s-2.66 2.8-2.84 3.29-.13.96.1 1.04 3.5-.28 7.26-.79c3.76-.52 9.13-1.06 11.92-1.21 2.8-.15 9.17-.28 14.14-.29 4.98-.01 11.48.12 14.44.29s6.61.25 8.12.19c1.5-.05 3.59-.27 4.63-.47 1.65-.32 1.85-.53 1.46-1.57-.33-.91-1.38-1.55-4.09-2.53-2-.73-6.19-1.72-9.32-2.22-3.13-.49-8.67-1.19-12.3-1.55-3.64-.36-9.39-.72-12.78-.81-4.83-.11-7.02.06-10.04.83-2.12.53-4.83 1.52-6.02 2.19Z"/><path d="M0 10h5v5H0z" style="fill:none"/>
</g>
<g transform="translate(219.82499568420576 257.4995916989505) rotate(-2 40.175004315794226 12.50040830104949) scale(-1 1) translate(-80.35000863158845 0)">
<path fill="#272421" stroke="#000" d="M25.63 10.05c-1.19.67-3.29 2.29-4.68 3.61s-2.66 2.8-2.84 3.29-.13.96.1 1.04 3.5-.28 7.26-.79c3.76-.52 9.13-1.06 11.92-1.21 2.8-.15 9.17-.28 14.14-.29 4.98-.01 11.48.12 14.44.29s6.61.25 8.12.19c1.5-.05 3.59-.27 4.63-.47 1.65-.32 1.85-.53 1.46-1.57-.33-.91-1.38-1.55-4.09-2.53-2-.73-6.19-1.72-9.32-2.22-3.13-.49-8.67-1.19-12.3-1.55-3.64-.36-9.39-.72-12.78-.81-4.83-.11-7.02.06-10.04.83-2.12.53-4.83 1.52-6.02 2.19Z"/><path d="M0 10h5v5H0z" style="fill:none"/>
</g>
<g transform="translate(-2.842170943040401e-14 51.52119068455602)">
<path d="M168 384s9-13.77 32-14.03c17.4-.2 32 13.2 32 13.2s-4.29 23.24-32 23.81c-27.29.56-32-22.98-32-22.98" style="opacity:.05;mix-blend-mode:multiply;fill:#501414"/><path d="M181.71 402.12c14.52 5.66 24.72 5.71 37.72-.71m.86-26.53c-14.52-5.66-27.29-6.34-40.29.09m-4 9.03c8-2.17 16 0 24 0s16-2.17 24 0m12-4s0 4-12 4m-60-4s0 4 12 4" style="fill:none;stroke:#000;stroke-width:4"/>
</g>
<g transform="translate(150.27785841680208 317.5) scale(1.08 1.08) translate(-3.683121598755404 -3.888888888888892)">
<path fill="#ad6453" stroke="#000" stroke-width="5" d="M36.03 47c-19.25.25-26.57 32.37-4.37 27.13 9-2.13 8.25 4.12 18.12 4.37 9.5.24 5.75-6.12 16.38-3.25 22.01 5.96 18.75-28-.21-28.02M50 55.6S51.25 45 51.25 35 50 5 50 5"/><path d="M40 95h20v5H40z" style="fill:none"/>
</g>
<g transform="scale(-1 1) translate(-400.1627066713039 0) scale(0.936 1) translate(13.680776296454821 0)">
<defs><linearGradient id="a" x1="200" x2="200" y1="100" y2="310" gradientUnits="userSpaceOnUse"><stop offset="0" stop-color="rgba(0,0,0,.5)"/><stop offset="1" stop-color="rgba(0,0,0,.25)"/></linearGradient></defs><path d="M60 310H50v-10c0-140 50-200 150-200s150 60 150 200v10h-10v-20c0-5-10-20-15-25s-5-55-15-65c-40-40-60 0-110 0s-70-40-110 0c-10 10-10 60-15 65s-15 20-15 25z" style="fill:url(#a);stroke:none"/><path fill="#272421" stroke="#000" stroke-width="4" d="M198.45 65.22c-.9 1.22-1.58 3.59-1.5 5.25.07 1.67.82 4.83 1.66 7.03s1.72 4.79 1.96 5.75c.28 1.16-.16 1.76-1.32 1.77-.96.01-2.65-.65-3.75-1.47s-2.68-1.52-3.5-1.55c-.82-.04-2.4.86-3.5 2s-2.56 2.05-3.25 2.03-1.36-1.48-1.5-3.26c-.23-2.99-.58-3.28-4.75-4.01-2.49-.43-5.62-1.84-7-3.15-1.37-1.3-4.42-3.65-6.77-5.23-3.84-2.59-4.54-2.75-7-1.61-1.5.69-4.02 2.27-5.59 3.5l-2.86 2.23C159.25 93.49 161.55 99 161 99s-4.71-2.02-9.25-4.48-9.04-4.49-10-4.5-1.96.32-2.21.73.65 2.44 2 4.5S144 99.22 144 99.5s-3.15.5-7 .5c-4.79 0-8.66.67-12.25 2.1-2.89 1.16-7.28 2.72-9.75 3.47-3.87 1.17-4.81 1.16-6.75-.1-1.24-.81-2.81-1.46-3.5-1.45s-3.39 1.81-6 4L94 112c-8.91-3.12-12.96-4.02-14.75-4.02L76 108c2.91 5.81 5.6 10.42 7.86 14s3.89 6.84 3.62 7.25c-.26.41-3.74.76-7.73.77l-7.25.03c-26.19 15.07-35.64 21.12-37.9 23.16l-4.1 3.71c4.26.06 7.75-.82 10.5-1.92s5-1.55 5-1-1.36 3.14-3.01 5.75c-1.66 2.61-3.01 5.31-3 6 .01.91 1.51 1.11 5.51.75 3.02-.28 5.52-.16 5.54.25s-1.91 2.55-4.3 4.75c-2.4 2.2-8.26 7.04-13.05 10.75-5.77 4.49-8.69 7.42-8.69 8.75 0 1.1.68 2.68 1.5 3.5s2.06 1.51 2.75 1.51c.69.01 3.39-1.34 6-3 2.61-1.65 5.2-3.01 5.75-3.01s1.01.79 1.03 1.75c.01.96-1 2.69-2.25 3.85-1.26 1.15-6.47 4.97-11.59 8.5-5.12 3.52-9.51 7.19-9.75 8.15s.01 2.65.56 3.75c.57 1.14 3.05 2.63 5.75 3.46 2.61.81 5.65 2.4 6.75 3.54l2 2.07c-9.94 9.89-11.48 12.17-11.49 14.18-.01 1.85.89 3.42 2.74 4.79 1.51 1.12 3.2 2.16 3.75 2.32.55.15-.45 2.5-2.23 5.21-1.77 2.71-3.23 5.72-3.25 6.68-.02 1.41.85 1.75 4.48 1.75 3.33 0 4.5.39 4.5 1.5 0 .82-.56 3.51-1.25 5.98-1.15 4.11-1.09 4.59.75 5.9 1.83 1.3 1.9 1.83.84 6.27-.64 2.67-.98 5.19-.75 5.6.22.41 1.31.52 2.41.25 1.52-.38 2.12.1 2.5 2 .33 1.67 13.5 2.5 13.5 2.5s0-30 20-50c10-10 13.87-20.43 14.92-24 1.08-3.65 3.16-7.87 4.75-9.62 1.72-1.9 4.99-3.82 8.33-4.89 5.08-1.64 12.59-1.79 97.5-2.01 50.8-.14 95.14.16 99 .66 3.85.5 9.02 1.91 11.48 3.13 2.47 1.23 5.26 3.58 6.22 5.23.95 1.65 2.65 6.6 3.78 11C317.1 223.9 320 230 330 240c20 20 19.45 51.1 20 50s15.9-4 17-4c1.84 0 1.95-.46 1.38-5.75-.49-4.62-.29-6 1-7 1.48-1.14 1.49-1.7.06-6.5-1.28-4.29-1.33-5.38-.25-5.98.72-.41 3-.75 5.06-.75 3.41-.02 3.69-.23 3.11-2.27-.35-1.24-1.92-4.16-3.5-6.5-1.57-2.34-2.75-4.38-2.61-4.55.14-.16 1.49-.84 3-1.5s3.13-2.21 3.6-3.45.61-3.15.32-4.25c-.3-1.1-2.93-4.36-5.86-7.25L367 225c5.04-3.75 7.63-5.1 9-5.42 1.38-.32 3.31-1.36 4.29-2.33 1-.98 1.66-2.84 1.5-4.22-.22-1.88-2.9-4.27-11.29-10.07-8.94-6.18-11.05-8.11-11.25-10.28-.14-1.47.09-2.67.5-2.66.41.02 2.89 1.37 5.5 3 2.61 1.64 5.48 2.87 6.38 2.73s2.24-1.15 2.99-2.25c1.13-1.67 1.13-2.33.02-4-.73-1.1-6.01-5.65-11.73-10.11-5.73-4.46-11.31-9.09-12.41-10.28l-2-2.18c10.58.06 11.5-.21 11.47-1.68-.01-.96-1.36-3.89-3-6.5-1.63-2.61-2.63-4.76-2.22-4.77.41 0 3.45.9 6.75 2.01s6.36 1.68 6.81 1.26c.45-.41-1.19-2.55-3.64-4.75s-10.45-7.37-17.78-11.5c-7.32-4.12-14.23-8.24-15.35-9.15-1.97-1.6-1.98-1.76-.31-5 .95-1.84 3.55-6.27 5.77-9.85s4.03-7.06 4.02-7.75-1.03-1.25-2.27-1.26c-1.24 0-5.18.93-8.75 2.09l-6.5 2.09c-7.36-6.33-9.95-8.17-10.5-8.17s-2.19.79-3.64 1.75c-2.23 1.48-3.2 1.57-6.25.6-1.99-.63-6.31-2.31-9.61-3.72-4.44-1.91-7.75-2.59-12.75-2.61-3.71-.01-6.74-.36-6.73-.77s.9-1.87 1.98-3.25c1.08-1.37 1.97-3.29 1.98-4.25.02-1.47-.59-1.65-3.73-1.14l-3.75.61c1.16-7.15 1.16-9.23.75-9.25-.41-.01-1.71 1-2.88 2.25-1.16 1.26-2.63 3.29-3.25 4.53-.75 1.51-2.02 2.25-3.87 2.25-1.51 0-4.1-.41-5.75-.92-2.44-.75-5.1-.19-14.25 3-6.19 2.16-11.7 3.7-12.25 3.42s-2.46-2.52-4.25-4.98c-2.4-3.31-4.1-4.62-6.5-5-2.11-.34-4.22-1.72-6-3.93-1.51-1.88-4.57-7.06-6.8-11.5-2.22-4.45-4.34-8.09-4.7-8.09s-1.39 1-2.3 2.22Z"/>
</g>
</svg>